<?xml version="1.0" encoding="UTF-8"?>
<svg version="1.1" xmlns="http://www.w3.org/2000/svg" width="546" height="457">
<path d="M0 0 C4.59607402 0.00776494 9.192133 0.0005056 13.78820801 -0.0041585 C21.49657482 -0.00956834 29.20485452 -0.00255173 36.91320801 0.01186323 C45.73890163 0.02818038 54.56438709 0.02288845 63.39007568 0.00638402 C71.06070699 -0.0073689 78.73127681 -0.00908413 86.4019165 -0.00129998 C90.94249871 0.00330181 95.48298416 0.00421492 100.02355957 -0.00590944 C166.83824852 -0.13426126 166.83824852 -0.13426126 191.65246582 11.4828105 C193.83779218 12.51487264 193.83779218 12.51487264 196.84289551 13.44203901 C200.17756617 14.56886454 203.09741049 16.09360789 206.18664551 17.77797651 C207.81086426 18.65582808 207.81086426 18.65582808 209.46789551 19.55141401 C212.67041863 21.39364212 215.70607714 23.22141593 218.68664551 25.40297651 C218.68664551 26.06297651 218.68664551 26.72297651 218.68664551 27.40297651 C219.36727051 27.60922651 220.04789551 27.81547651 220.74914551 28.02797651 C227.56025168 31.21615387 233.3415388 37.33946603 237.68664551 43.40297651 C238.38195801 45.64516401 238.38195801 45.64516401 238.68664551 47.40297651 C239.34664551 47.40297651 240.00664551 47.40297651 240.68664551 47.40297651 C245.04228239 51.75861339 247.50579875 56.68805098 250.14758301 62.21547651 C251.12496585 64.23970088 252.14664209 66.2435794 253.22570801 68.21547651 C257.9180781 76.8783136 260.40250796 85.8806163 262.68664551 95.40297651 C262.92750381 96.36729597 263.16836212 97.33161543 263.41651917 98.32515669 C265.65298141 107.86424162 266.45137096 117.19724203 266.85852051 126.95766401 C266.89789482 127.82861582 266.93726913 128.69956762 266.97783661 129.59691191 C268.21382007 157.58316416 267.98774818 185.62177578 267.94378519 213.6291678 C267.93623145 218.9969928 267.93897439 224.36474403 267.9473877 229.73256636 C268.03650224 288.26770169 268.03650224 288.26770169 266.83898926 312.77407026 C266.80309441 313.55119997 266.76719955 314.32832968 266.73021698 315.12900877 C265.5609018 339.32888665 260.0732691 362.93836803 246.68664551 383.40297651 C245.68591525 385.06920481 244.68584024 386.73582695 243.68664551 388.40297651 C242.12414551 390.71547651 242.12414551 390.71547651 240.68664551 392.40297651 C240.02664551 392.40297651 239.36664551 392.40297651 238.68664551 392.40297651 C238.58223145 392.98563276 238.47781738 393.56828901 238.37023926 394.16860151 C236.0238453 401.83795777 227.00214965 408.06178902 220.68664551 412.40297651 C220.02664551 412.40297651 219.36664551 412.40297651 218.68664551 412.40297651 C218.68664551 413.06297651 218.68664551 413.72297651 218.68664551 414.40297651 C214.51950816 417.70196025 210.31715084 420.21381243 205.53039551 422.49672651 C203.51600318 423.44972529 203.51600318 423.44972529 201.06164551 425.02797651 C198.34464777 426.6009752 195.67455884 427.44684425 192.68664551 428.40297651 C191.66828613 428.86703901 190.64992676 429.33110151 189.60070801 429.80922651 C162.1830256 441.63449231 128.7522022 439.86887239 99.5005703 439.80595303 C94.75273556 439.7982085 90.00491574 439.80544208 85.25708008 439.81011152 C77.29297708 439.815527 69.32895829 439.80848948 61.36486816 439.79408979 C52.23584697 439.77777153 43.10702699 439.78306305 33.97801065 439.79956901 C26.05522426 439.81330538 18.13249745 439.81504499 10.20970297 439.807253 C5.51489575 439.80264239 0.82018218 439.8017641 -3.87461853 439.81186247 C-72.91943072 439.93981959 -72.91943072 439.93981959 -94.60461426 428.29726362 C-96.65528679 427.22402266 -98.71538081 426.53573307 -100.93835449 425.90297651 C-104.91443644 424.64343001 -107.90784909 422.84605648 -111.31335449 420.40297651 C-112.5344522 419.68082196 -113.76390557 418.9726305 -115.00085449 418.27797651 C-118.31335449 416.40297651 -118.31335449 416.40297651 -121.31335449 414.40297651 C-121.31335449 413.74297651 -121.31335449 413.08297651 -121.31335449 412.40297651 C-122.03522949 412.15547651 -122.75710449 411.90797651 -123.50085449 411.65297651 C-126.58942031 410.28028059 -128.82346867 408.67944355 -131.31335449 406.40297651 C-131.31335449 405.74297651 -131.31335449 405.08297651 -131.31335449 404.40297651 C-131.97335449 404.40297651 -132.63335449 404.40297651 -133.31335449 404.40297651 C-135.00476074 402.79360151 -135.00476074 402.79360151 -136.87585449 400.65297651 C-137.49589355 399.95688276 -138.11593262 399.26078901 -138.75476074 398.54360151 C-140.29866543 396.42315096 -140.892323 394.96377078 -141.31335449 392.40297651 C-141.97335449 392.40297651 -142.63335449 392.40297651 -143.31335449 392.40297651 C-148.17094522 387.41045271 -151.2130447 381.59633542 -154.31335449 375.40297651 C-154.62708008 374.79502241 -154.94080566 374.18706831 -155.26403809 373.56069136 C-164.91620025 354.62923783 -168.53948413 334.91230124 -169.46179199 313.87563276 C-169.50210289 313.00708725 -169.54241379 312.13854174 -169.58394623 311.24367666 C-170.85822556 282.96889561 -170.61425458 254.63936932 -170.57049382 226.34256232 C-170.56294402 220.89612252 -170.5656806 215.44975546 -170.57409668 210.00331831 C-170.66315371 150.66053014 -170.66315371 150.66053014 -169.46960449 125.41469526 C-169.43397652 124.61197628 -169.39834854 123.8092573 -169.36164093 122.9822135 C-168.27147975 99.49758858 -162.17011342 77.75263861 -150.31335449 57.40297651 C-149.52141182 56.00729976 -148.72970647 54.61148828 -147.93835449 53.21547651 C-147.40210449 52.28735151 -146.86585449 51.35922651 -146.31335449 50.40297651 C-145.65335449 50.40297651 -144.99335449 50.40297651 -144.31335449 50.40297651 C-143.98335449 49.41297651 -143.65335449 48.42297651 -143.31335449 47.40297651 C-142.65335449 47.40297651 -141.99335449 47.40297651 -141.31335449 47.40297651 C-141.20894043 46.82032026 -141.10452637 46.23766401 -140.99694824 45.63735151 C-138.65055428 37.96799525 -129.62885864 31.744164 -123.31335449 27.40297651 C-122.65335449 27.40297651 -121.99335449 27.40297651 -121.31335449 27.40297651 C-121.31335449 26.74297651 -121.31335449 26.08297651 -121.31335449 25.40297651 C-117.14621714 22.10399278 -112.94385982 19.59214059 -108.15710449 17.30922651 C-106.14271216 16.35622774 -106.14271216 16.35622774 -103.68835449 14.77797651 C-100.96624515 13.20201847 -98.30834021 12.36370097 -95.31335449 11.40297651 C-93.91149902 10.9427812 -93.91149902 10.9427812 -92.48132324 10.47328901 C-62.07604527 0.82967529 -31.61985984 -0.07050446 0 0 Z M-96.31335449 58.40297651 C-96.31335449 59.06297651 -96.31335449 59.72297651 -96.31335449 60.40297651 C-97.96335449 61.06297651 -99.61335449 61.72297651 -101.31335449 62.40297651 C-101.31335449 63.06297651 -101.31335449 63.72297651 -101.31335449 64.40297651 C-102.20280762 64.78969526 -102.20280762 64.78969526 -103.11022949 65.18422651 C-105.48996414 66.50067547 -106.82314241 67.82878433 -108.56335449 69.90297651 C-109.08413574 70.51141401 -109.60491699 71.11985151 -110.14147949 71.74672651 C-111.50588446 73.33693472 -111.50588446 73.33693472 -111.31335449 75.40297651 C-111.97335449 75.40297651 -112.63335449 75.40297651 -113.31335449 75.40297651 C-113.5672998 75.9224687 -113.82124512 76.44196089 -114.08288574 76.97719526 C-115.60337615 80.05803912 -117.09665728 83.06126168 -118.93835449 85.96547651 C-120.65645158 89.01119409 -121.39880022 92.03055764 -122.31335449 95.40297651 C-122.80217209 96.67815286 -123.30264225 97.94891015 -123.81335449 99.21547651 C-128.1359147 110.54582371 -128.41821014 123.03116368 -128.86755371 135.01454878 C-128.90966413 136.13495589 -128.95177456 137.25536301 -128.99516106 138.40972185 C-129.46243547 152.07720765 -129.46011501 165.74655792 -129.44768 179.42013955 C-129.44508483 183.1896928 -129.4475133 186.95924405 -129.44906616 190.72879744 C-129.45086778 197.0511032 -129.44853531 203.37339716 -129.44372559 209.69570112 C-129.43828928 216.92342179 -129.44004928 224.1511142 -129.44555199 231.37883419 C-129.45014404 237.6710259 -129.45070432 243.96320929 -129.44811332 250.25540215 C-129.44658321 253.97545031 -129.44626365 257.69548536 -129.44964981 261.41553259 C-129.46089218 275.76124793 -129.37976955 290.09431547 -128.85974121 304.43251753 C-128.81997225 305.53007588 -128.78020329 306.62763424 -128.7392292 307.75845194 C-128.19672937 327.99276347 -128.19672937 327.99276347 -121.31335449 346.40297651 C-120.81915748 347.82854482 -120.36340999 349.26778749 -119.93835449 350.71547651 C-118.64009883 354.78908485 -116.8081328 357.91028689 -114.31335449 361.40297651 C-113.81835449 362.88797651 -113.81835449 362.88797651 -113.31335449 364.40297651 C-112.65335449 364.40297651 -111.99335449 364.40297651 -111.31335449 364.40297651 C-111.05296387 364.97918745 -110.79257324 365.55539839 -110.52429199 366.14907026 C-109.22615641 368.56527746 -107.75143019 370.4109213 -105.93835449 372.46547651 C-105.35312012 373.13707808 -104.76788574 373.80867964 -104.16491699 374.50063276 C-102.3231642 376.39289776 -100.51606905 377.94809714 -98.31335449 379.40297651 C-97.65335449 379.40297651 -96.99335449 379.40297651 -96.31335449 379.40297651 C-96.31335449 380.06297651 -96.31335449 380.72297651 -96.31335449 381.40297651 C-65.80923413 399.35683021 -33.28684331 398.72438551 1.14279056 398.67162752 C5.57440841 398.66647464 10.00601904 398.6712843 14.43763733 398.67439985 C21.87327589 398.67801336 29.3088744 398.67331026 36.74450684 398.6637187 C45.27248487 398.65284329 53.80036714 398.65636379 62.32834285 398.66737151 C69.7227593 398.67652459 77.11714736 398.67769083 84.51156765 398.67249417 C88.89612424 398.66941753 93.28063624 398.66884336 97.66518974 398.67556715 C145.87082203 399.22298516 145.87082203 399.22298516 190.68664551 383.40297651 C190.68664551 382.74297651 190.68664551 382.08297651 190.68664551 381.40297651 C191.67664551 381.40297651 192.66664551 381.40297651 193.68664551 381.40297651 C193.68664551 380.74297651 193.68664551 380.08297651 193.68664551 379.40297651 C194.55289551 379.31016401 194.55289551 379.31016401 195.43664551 379.21547651 C198.60628899 378.07088303 199.68084779 376.07737347 201.68664551 373.40297651 C203.98150959 371.05074083 206.28052718 368.75986838 208.74914551 366.59047651 C210.97931082 364.07254793 212.25297305 361.53661276 213.65930176 358.50063276 C214.68664551 356.40297651 214.68664551 356.40297651 216.18273926 354.02407026 C224.61592718 339.32622845 225.7799461 319.90685271 226.24133301 303.34828901 C226.26226894 302.62041307 226.28320488 301.89253714 226.30477524 301.14260435 C227.00107694 275.98053064 226.83668115 250.79938677 226.81521487 225.62977004 C226.81143868 220.68746606 226.81280937 215.74518211 226.8170166 210.80287886 C226.91867553 173.72360068 226.91867553 173.72360068 226.26086426 136.65297651 C226.2247403 135.41087416 226.18861633 134.1687718 226.15139771 132.88902998 C225.65820522 119.10587016 223.96064397 106.22644858 218.68664551 93.40297651 C218.1760185 91.80216086 217.67556218 90.1980558 217.18664551 88.59047651 C215.92902852 84.72779576 214.05416677 81.71750628 211.68664551 78.40297651 C211.35664551 77.41297651 211.02664551 76.42297651 210.68664551 75.40297651 C209.06561583 73.69188963 207.39161088 72.03044346 205.68664551 70.40297651 C200.95691578 65.7858594 200.95691578 65.7858594 199.18664551 63.27797651 C197.31216713 60.93487854 195.3420841 59.7647399 192.68664551 58.40297651 C192.02664551 58.40297651 191.36664551 58.40297651 190.68664551 58.40297651 C190.68664551 57.74297651 190.68664551 57.08297651 190.68664551 56.40297651 C161.51574812 39.7751524 128.40893314 41.08317956 95.80075693 41.1343255 C91.46217023 41.13948653 87.12359081 41.13466649 82.78500366 41.13155317 C75.50496881 41.12794153 68.22497489 41.13263731 60.94494629 41.14223433 C52.60387069 41.15310516 44.26289303 41.14959179 35.92181981 41.13858151 C28.68191525 41.12941791 21.44203966 41.12826731 14.20213115 41.13345885 C9.91254065 41.13653041 5.62299568 41.13712467 1.33340836 41.13038588 C-49.457145 40.78016266 -49.457145 40.78016266 -96.31335449 58.40297651 Z " fill="#060606" transform="translate(224.3133544921875,8.597023487091064)"/>
<path d="M0 0 C2.38734723 0.00315851 4.77344974 -0.0203631 7.16064453 -0.0456543 C16.05693676 -0.08275348 23.97457687 0.58888501 32.52392578 3.31567383 C33.21695801 3.51443115 33.90999023 3.71318848 34.62402344 3.91796875 C44.18058999 6.68262753 52.77817156 10.6395926 61.52392578 15.31567383 C61.52392578 15.97567383 61.52392578 16.63567383 61.52392578 17.31567383 C62.10142578 17.43942383 62.67892578 17.56317383 63.27392578 17.69067383 C65.54728345 18.32216207 67.44927868 19.20425574 69.52392578 20.31567383 C69.52392578 20.97567383 69.52392578 21.63567383 69.52392578 22.31567383 C70.08080078 22.56833008 70.63767578 22.82098633 71.21142578 23.08129883 C78.00018169 26.70502664 83.57552284 31.73500227 87.52392578 38.31567383 C88.41080078 39.18192383 89.29767578 40.04817383 90.21142578 40.94067383 C92.43341793 43.22271982 93.18023672 44.22247226 93.52392578 47.31567383 C94.18392578 47.31567383 94.84392578 47.31567383 95.52392578 47.31567383 C101.17435916 55.04915881 105.08410276 63.41414708 108.52392578 72.31567383 C109.08018395 73.56846396 109.64166389 74.81896711 110.21142578 76.06567383 C118.71827368 97.13024958 118.29079213 127.16118259 110.52392578 148.31567383 C110.20939453 149.27086914 109.89486328 150.22606445 109.57080078 151.21020508 C107.15052903 158.1216149 104.01723512 164.31115369 100.33642578 170.62817383 C99.89613037 171.38815674 99.45583496 172.14813965 99.00219727 172.93115234 C97.90439723 174.76433294 96.72138267 176.54598091 95.52392578 178.31567383 C94.86392578 178.31567383 94.20392578 178.31567383 93.52392578 178.31567383 C93.44400391 178.87641602 93.36408203 179.4371582 93.28173828 180.01489258 C92.27117637 183.0830419 90.59297736 184.76677933 88.39892578 187.12817383 C87.18076172 188.44108398 87.18076172 188.44108398 85.93798828 189.78051758 C76.29336831 199.90892916 76.29336831 199.90892916 71.52392578 203.31567383 C70.86392578 203.31567383 70.20392578 203.31567383 69.52392578 203.31567383 C69.52392578 203.97567383 69.52392578 204.63567383 69.52392578 205.31567383 C66.61843696 207.35736868 65.12250532 208.31567383 61.52392578 208.31567383 C61.52392578 208.97567383 61.52392578 209.63567383 61.52392578 210.31567383 C50.06220051 217.25257053 38.48214429 221.06763386 25.52392578 224.31567383 C24.87818604 224.49670654 24.23244629 224.67773926 23.56713867 224.86425781 C7.13836004 228.49394018 -12.48255456 226.96300546 -28.47607422 222.31567383 C-29.50216797 222.05012695 -30.52826172 221.78458008 -31.58544922 221.51098633 C-40.63792257 219.01603635 -48.38898015 214.96991676 -56.47607422 210.31567383 C-57.37583984 209.80133789 -58.27560547 209.28700195 -59.20263672 208.75708008 C-61.00616389 207.68324853 -62.75155618 206.51227818 -64.47607422 205.31567383 C-64.47607422 204.65567383 -64.47607422 203.99567383 -64.47607422 203.31567383 C-65.28044922 202.94442383 -65.28044922 202.94442383 -66.10107422 202.56567383 C-73.33789207 198.75682233 -78.29009215 194.2923106 -82.47607422 187.31567383 C-83.21857422 186.59379883 -83.96107422 185.87192383 -84.72607422 185.12817383 C-96.57555206 173.00938967 -105.47897943 154.98883221 -108.47607422 138.31567383 C-108.66041016 137.29860352 -108.84474609 136.2815332 -109.03466797 135.23364258 C-112.01770691 116.24505678 -111.9875695 95.56499614 -105.47607422 77.31567383 C-105.16154297 76.35790039 -104.84701172 75.40012695 -104.52294922 74.41333008 C-100.96198552 64.26959898 -92.68221774 43.41874559 -82.47607422 38.31567383 C-82.07517578 37.58993164 -81.67427734 36.86418945 -81.26123047 36.11645508 C-78.97467822 32.52901971 -76.17367524 30.18943969 -72.91357422 27.50317383 C-72.02895508 26.75003906 -72.02895508 26.75003906 -71.12646484 25.98168945 C-66.74220942 22.31567383 -66.74220942 22.31567383 -64.47607422 22.31567383 C-64.47607422 21.65567383 -64.47607422 20.99567383 -64.47607422 20.31567383 C-55.43069965 13.47265133 -45.01259934 9.27210967 -34.47607422 5.31567383 C-33.57501953 4.97536133 -32.67396484 4.63504883 -31.74560547 4.28442383 C-21.27931659 0.57954281 -11.0154869 -0.03042952 0 0 Z M-20.47607422 44.31567383 C-21.35521484 44.60442383 -22.23435547 44.89317383 -23.14013672 45.19067383 C-34.64480666 49.28122314 -46.54127941 57.23122805 -53.23779297 67.60473633 C-54.47607422 69.31567383 -54.47607422 69.31567383 -56.39794922 71.11645508 C-65.37329156 80.61479669 -68.81291688 95.67423709 -69.47607422 108.31567383 C-69.51732422 109.01950195 -69.55857422 109.72333008 -69.60107422 110.44848633 C-70.07236483 126.41345566 -65.8432033 142.3032088 -56.47607422 155.31567383 C-55.81607422 155.31567383 -55.15607422 155.31567383 -54.47607422 155.31567383 C-54.19634766 155.90864258 -53.91662109 156.50161133 -53.62841797 157.11254883 C-47.32057848 169.17228263 -33.13307163 176.86375145 -20.77685547 181.28051758 C-18.35300809 182.0266023 -15.93545807 182.6970558 -13.47607422 183.31567383 C-12.22052734 183.66243164 -10.96498047 184.00918945 -9.67138672 184.36645508 C5.99945331 188.23665554 23.1164646 184.40052353 36.96142578 176.56567383 C53.67089517 166.18963235 67.14204681 151.58046184 72.27392578 132.19067383 C76.94712963 111.43848047 74.41774667 91.19111067 63.25830078 72.87817383 C61.29369489 69.97551288 59.13743694 67.64664324 56.52392578 65.31567383 C55.84330078 64.44942383 55.16267578 63.58317383 54.46142578 62.69067383 C52.6234255 60.43764123 50.97240567 58.86637776 48.52392578 57.31567383 C47.86392578 57.31567383 47.20392578 57.31567383 46.52392578 57.31567383 C46.52392578 56.65567383 46.52392578 55.99567383 46.52392578 55.31567383 C27.57833072 40.45375827 1.99254611 36.16584681 -20.47607422 44.31567383 Z " fill="#060606" transform="translate(270.47607421875,115.684326171875)"/>
<path d="M0 0 C0 0.66 0 1.32 0 2 C0.5775 2.226875 1.155 2.45375 1.75 2.6875 C6.23162464 5.30178104 8.35165237 9.22117705 10 14 C11.36878128 22.00295508 11.94549647 29.41893891 7.4453125 36.41796875 C4.63123833 40.21636501 2.43982636 43.14192289 -2 45 C-2 45.66 -2 46.32 -2 47 C-9.6223166 50.58697252 -17.73491524 51.73362547 -25.8828125 49.05078125 C-34.34282055 45.04806102 -39.09574974 39.39413807 -43 31 C-45.5012739 22.72534548 -43.60917074 15.62451825 -40 8 C-38.47824714 5.63333362 -37.03530083 3.98174028 -35 2 C-34.34 2 -33.68 2 -33 2 C-33 1.34 -33 0.68 -33 0 C-31.41800369 -0.64910154 -29.83434276 -1.29414694 -28.25 -1.9375 C-27.36828125 -2.29714844 -26.4865625 -2.65679687 -25.578125 -3.02734375 C-16.32074209 -6.51990185 -8.76547201 -3.93439767 0 0 Z " fill="#0A0A0A" transform="translate(406,89)"/>
<path d="M0 0 C0.75 1.75 0.75 1.75 1 4 C-0.5 5.75 -0.5 5.75 -3 8 C-4.79465274 10.07951825 -6.55831953 12.18248158 -8.31640625 14.29296875 C-10 16 -10 16 -13 17 C-11.9161623 14.2411404 -10.98691035 12.98966607 -8.625 11.125 C-5.68289253 8.74329396 -4.06950312 6.13993578 -2 3 C-1.34 3 -0.68 3 0 3 C0 2.01 0 1.02 0 0 Z " fill="#636363" transform="translate(435,370)"/>
<path d="M0 0 C-3.33333333 1.66666667 -6.66666667 3.33333333 -10 5 C-10.66 4.34 -11.32 3.68 -12 3 C-10.3789897 2.30314502 -8.75303934 1.61777139 -7.125 0.9375 C-6.22007812 0.55464844 -5.31515625 0.17179687 -4.3828125 -0.22265625 C-2 -1 -2 -1 0 0 Z " fill="#6D6D6D" transform="translate(238,122)"/>
<path d="M0 0 C0.66 0 1.32 0 2 0 C0.50902342 3.7952131 -1.75700849 5.61042731 -5 8 C-3.63055898 5.05043472 -2.12169591 2.47531189 0 0 Z " fill="#535353" transform="translate(371,91)"/>
<path d="" fill="#FFFFFF" transform="translate(0,0)"/>
<path d="" fill="#FFFFFF" transform="translate(0,0)"/>
<path d="" fill="#FFFFFF" transform="translate(0,0)"/>
<path d="" fill="#FFFFFF" transform="translate(0,0)"/>
<path d="" fill="#FFFFFF" transform="translate(0,0)"/>
<path d="" fill="#FFFFFF" transform="translate(0,0)"/>
<path d="" fill="#FFFFFF" transform="translate(0,0)"/>
<path d="" fill="#FFFFFF" transform="translate(0,0)"/>
<path d="" fill="#FFFFFF" transform="translate(0,0)"/>
<path d="" fill="#FFFFFF" transform="translate(0,0)"/>
<path d="" fill="#FFFFFF" transform="translate(0,0)"/>
<path d="" fill="#FFFFFF" transform="translate(0,0)"/>
<path d="" fill="#FFFFFF" transform="translate(0,0)"/>
<path d="" fill="#FFFFFF" transform="translate(0,0)"/>
<path d="" fill="#FFFFFF" transform="translate(0,0)"/>
<path d="" fill="#FFFFFF" transform="translate(0,0)"/>
<path d="" fill="#FFFFFF" transform="translate(0,0)"/>
<path d="" fill="#FFFFFF" transform="translate(0,0)"/>
<path d="" fill="#FFFFFF" transform="translate(0,0)"/>
<path d="" fill="#FFFFFF" transform="translate(0,0)"/>
<path d="" fill="#FFFFFF" transform="translate(0,0)"/>
<path d="" fill="#FFFFFF" transform="translate(0,0)"/>
<path d="" fill="#FFFFFF" transform="translate(0,0)"/>
<path d="" fill="#FFFFFF" transform="translate(0,0)"/>
<path d="" fill="#FFFFFF" transform="translate(0,0)"/>
<path d="" fill="#FFFFFF" transform="translate(0,0)"/>
<path d="" fill="#FFFFFF" transform="translate(0,0)"/>
<path d="" fill="#FFFFFF" transform="translate(0,0)"/>
<path d="" fill="#FFFFFF" transform="translate(0,0)"/>
<path d="" fill="#FFFFFF" transform="translate(0,0)"/>
<path d="" fill="#FFFFFF" transform="translate(0,0)"/>
<path d="" fill="#FFFFFF" transform="translate(0,0)"/>
<path d="" fill="#FFFFFF" transform="translate(0,0)"/>
<path d="" fill="#FFFFFF" transform="translate(0,0)"/>
<path d="" fill="#FFFFFF" transform="translate(0,0)"/>
<path d="" fill="#FFFFFF" transform="translate(0,0)"/>
<path d="" fill="#FFFFFF" transform="translate(0,0)"/>
<path d="" fill="#FFFFFF" transform="translate(0,0)"/>
<path d="" fill="#FFFFFF" transform="translate(0,0)"/>
<path d="" fill="#FFFFFF" transform="translate(0,0)"/>
<path d="" fill="#FFFFFF" transform="translate(0,0)"/>
<path d="" fill="#FFFFFF" transform="translate(0,0)"/>
<path d="" fill="#FFFFFF" transform="translate(0,0)"/>
<path d="" fill="#FFFFFF" transform="translate(0,0)"/>
<path d="" fill="#FFFFFF" transform="translate(0,0)"/>
<path d="" fill="#FFFFFF" transform="translate(0,0)"/>
<path d="" fill="#FFFFFF" transform="translate(0,0)"/>
<path d="" fill="#FFFFFF" transform="translate(0,0)"/>
<path d="" fill="#FFFFFF" transform="translate(0,0)"/>
<path d="" fill="#FFFFFF" transform="translate(0,0)"/>
<path d="" fill="#FFFFFF" transform="translate(0,0)"/>
<path d="" fill="#FFFFFF" transform="translate(0,0)"/>
<path d="" fill="#FFFFFF" transform="translate(0,0)"/>
<path d="" fill="#FFFFFF" transform="translate(0,0)"/>
<path d="" fill="#FFFFFF" transform="translate(0,0)"/>
<path d="" fill="#FFFFFF" transform="translate(0,0)"/>
<path d="" fill="#FFFFFF" transform="translate(0,0)"/>
<path d="" fill="#FFFFFF" transform="translate(0,0)"/>
<path d="" fill="#FFFFFF" transform="translate(0,0)"/>
</svg>
