<?xml version="1.0" encoding="UTF-8"?>
<svg version="1.1" xmlns="http://www.w3.org/2000/svg" width="225" height="225">
<path d="M0 0 C1.5631897 0.00785522 1.5631897 0.00785522 3.15795898 0.01586914 C4.28266602 0.0190918 5.40737305 0.02231445 6.56616211 0.02563477 C7.75016602 0.03401367 8.93416992 0.04239258 10.15405273 0.05102539 C11.34192383 0.05553711 12.52979492 0.06004883 13.75366211 0.06469727 C16.69967499 0.07652864 19.64558954 0.09301252 22.59155273 0.11352539 C23.58155273 3.08352539 23.58155273 3.08352539 24.59155273 6.11352539 C27.56155273 6.60852539 27.56155273 6.60852539 30.59155273 7.11352539 C30.67791992 7.79157227 30.76428711 8.46961914 30.85327148 9.16821289 C31.99311418 16.71836356 33.35739744 24.96011603 39.82592773 29.77758789 C44.63630738 32.33216838 49.38711186 33.75830363 54.77905273 34.46118164 C56.59155273 35.11352539 56.59155273 35.11352539 57.64624023 37.09399414 C58.11416992 38.09366211 58.11416992 38.09366211 58.59155273 39.11352539 C61.63354745 40.40584181 61.63354745 40.40584181 64.59155273 41.11352539 C65.8403924 45.96901402 65.77528178 50.76086797 65.77905273 55.73852539 C65.79129883 56.59704102 65.80354492 57.45555664 65.81616211 58.34008789 C65.8180957 59.16508789 65.8200293 59.99008789 65.82202148 60.84008789 C65.82613037 61.5885498 65.83023926 62.33701172 65.83447266 63.1081543 C65.59155273 65.11352539 65.59155273 65.11352539 63.59155273 68.11352539 C51.19523077 66.97888936 41.7391068 63.69354836 30.59155273 58.11352539 C30.60154549 59.08832855 30.60154549 59.08832855 30.61174011 60.08282471 C30.67853525 66.89704398 30.72353532 73.71116899 30.75634766 80.52563477 C30.7713575 83.06278262 30.7917717 85.59990488 30.81787109 88.13696289 C30.85459878 91.80109001 30.87135781 95.46487162 30.88452148 99.12915039 C30.90000534 100.24839905 30.9154892 101.36764771 30.93144226 102.52081299 C30.93389524 114.21466233 28.87943354 123.83314515 21.59155273 133.11352539 C21.15069336 133.7284082 20.70983398 134.34329102 20.25561523 134.97680664 C14.40035812 142.60894814 5.62605088 147.26052598 -3.40844727 150.11352539 C-3.9846582 150.29657227 -4.56086914 150.47961914 -5.15454102 150.66821289 C-17.57716395 153.12259593 -29.60835689 150.75114413 -40.43579102 144.44946289 C-43.09544606 142.64827076 -45.20940458 140.44192353 -47.40844727 138.11352539 C-48.39844727 137.78352539 -49.38844727 137.45352539 -50.40844727 137.11352539 C-50.40844727 136.45352539 -50.40844727 135.79352539 -50.40844727 135.11352539 C-50.97692383 135.05551758 -51.54540039 134.99750977 -52.13110352 134.93774414 C-57.30757237 133.06427085 -60.6786502 126.74898199 -63.40844727 122.11352539 C-69.57059199 108.77429446 -71.01169403 96.83538162 -66.28735352 82.77758789 C-60.99436004 70.152374 -52.30829287 60.89643621 -39.76000977 55.56274414 C-35.20235175 53.88593965 -30.72305935 53.35338102 -25.90844727 52.92602539 C-25.08602539 52.84416992 -24.26360352 52.76231445 -23.41625977 52.67797852 C-21.41458951 52.48013901 -19.41162774 52.29543815 -17.40844727 52.11352539 C-15.40844727 55.11352539 -15.40844727 55.11352539 -15.40844727 58.11352539 C-13.09844727 58.77352539 -10.78844727 59.43352539 -8.40844727 60.11352539 C-8.40844727 68.36352539 -8.40844727 76.61352539 -8.40844727 85.11352539 C-11.61762772 85.9158205 -13.93228249 86.19314408 -17.15844727 86.30102539 C-22.87766446 86.84168994 -26.43402916 89.0340145 -30.40844727 93.11352539 C-33.26841171 97.3573436 -34.72417833 101.9689663 -34.40844727 107.11352539 C-33.49467093 110.36821189 -32.40686479 113.37095239 -30.40844727 116.11352539 C-25.72852213 117.94268532 -19.93329635 117.9299968 -15.18579102 116.39477539 C-10.86354068 114.39119019 -8.02558435 112.19625924 -5.40844727 108.11352539 C-3.76353464 103.1787875 -4.01410512 98.05121299 -3.84594727 92.87915039 C-3.80348877 91.60581848 -3.76103027 90.33248657 -3.71728516 89.02056885 C-3.18162761 71.63982361 -3.33769787 54.24998246 -3.40844727 36.86352539 C-3.43217824 30.90663305 -3.45237556 24.94976431 -3.46438599 18.992836 C-3.47084702 16.63449035 -3.48332139 14.27622639 -3.49609375 11.91790771 C-3.49971976 10.49580963 -3.50307228 9.07371081 -3.50610352 7.65161133 C-3.51134033 6.40893494 -3.51657715 5.16625854 -3.52197266 3.88592529 C-3.36935355 0.158819 -3.36935355 0.158819 0 0 Z " fill="#050304" transform="translate(114.408447265625,36.886474609375)"/>
<path d="M0 0 C7.92 0 15.84 0 24 0 C24 1.98 24 3.96 24 6 C24.66 6 25.32 6 26 6 C26.43699219 7.28583984 26.43699219 7.28583984 26.8828125 8.59765625 C30.58077593 18.91241587 33.96800614 24.84603529 43.75390625 29.95703125 C46.12994282 31.06033867 48.56766803 32.02706721 51 33 C51 39.27 51 45.54 51 52 C40.10922463 52 32.62628507 50.6424147 23.109375 45.37890625 C21.95920898 44.74670166 20.80904297 44.11449707 19.62402344 43.46313477 C18.32513184 42.73888306 18.32513184 42.73888306 17 42 C17.00222061 42.70743851 17.00444122 43.41487701 17.00672913 44.14375305 C17.02676244 50.8092287 17.04198968 57.47469595 17.05181217 64.14019489 C17.05703175 67.56702775 17.06411265 70.99383575 17.07543945 74.4206543 C17.08837846 78.35986026 17.09323586 82.29905613 17.09765625 86.23828125 C17.10281754 87.46960281 17.10797882 88.70092438 17.11329651 89.96955872 C17.11340981 91.68099312 17.11340981 91.68099312 17.11352539 93.42700195 C17.115746 94.432939 17.11796661 95.43887604 17.12025452 96.47529602 C17 99 17 99 16 102 C15.01 102 14.02 102 13 102 C13 103.65 13 105.3 13 107 C12.34 107 11.68 107 11 107 C11 108.32 11 109.64 11 111 C10.01 111.495 10.01 111.495 9 112 C9 112.99 9 113.98 9 115 C7.02 115.99 5.04 116.98 3 118 C-0.15380946 115.41961044 -1.13718893 112.95455076 -2 109 C-1.90226598 107.47077633 -1.75007497 105.94457549 -1.55970764 104.42410278 C-0.98091379 99.19426932 -0.82869097 94.03515855 -0.79467773 88.77685547 C-0.78477814 87.80979172 -0.77487854 86.84272797 -0.76467896 85.84635925 C-0.7333833 82.68665925 -0.70843441 79.52694427 -0.68359375 76.3671875 C-0.66299656 74.16187169 -0.64199941 71.95655959 -0.62062073 69.75125122 C-0.56568545 63.97443661 -0.51615144 58.19758808 -0.46777344 52.42071533 C-0.41734872 46.51482153 -0.36177261 40.6089764 -0.30664062 34.703125 C-0.19940868 23.13545688 -0.09836412 11.56774693 0 0 Z " fill="#080102" transform="translate(120,45)"/>
<path d="M0 0 C0.61875 0.268125 1.2375 0.53625 1.875 0.8125 C6.86555554 2.70891111 12.02215561 4.38069094 17.25390625 5.46875 C17.83011719 5.6440625 18.40632813 5.819375 19 6 C19.28875 6.639375 19.5775 7.27875 19.875 7.9375 C20.90505873 10.34703737 20.90505873 10.34703737 24.125 11.25 C25.07375 11.4975 26.0225 11.745 27 12 C28.24883967 16.85548863 28.18372905 21.64734258 28.1875 26.625 C28.19974609 27.48351562 28.21199219 28.34203125 28.22460938 29.2265625 C28.22654297 30.0515625 28.22847656 30.8765625 28.23046875 31.7265625 C28.23457764 32.47502441 28.23868652 33.22348633 28.24291992 33.99462891 C28 36 28 36 26 39 C13.60367804 37.86536397 4.14755407 34.58002297 -7 29 C-6.99000725 29.97480316 -6.99000725 29.97480316 -6.97981262 30.96929932 C-6.91301748 37.78351859 -6.86801741 44.5976436 -6.83520508 51.41210938 C-6.82019523 53.94925723 -6.79978103 56.48637948 -6.77368164 59.0234375 C-6.73695395 62.68756462 -6.72019492 66.35134623 -6.70703125 70.015625 C-6.69154739 71.13487366 -6.67606354 72.25412231 -6.66011047 73.4072876 C-6.65765749 85.10113694 -8.71211919 94.71961976 -16 104 C-16.66128906 104.92232422 -16.66128906 104.92232422 -17.3359375 105.86328125 C-23.19119461 113.49542274 -31.96550186 118.14700059 -41 121 C-41.57621094 121.18304688 -42.15242188 121.36609375 -42.74609375 121.5546875 C-55.95592345 124.16460186 -68.86561452 121.39268771 -80 114 C-82.5625 111.6875 -82.5625 111.6875 -84 110 C-83.01 109.505 -83.01 109.505 -82 109 C-80.1953125 109.7421875 -80.1953125 109.7421875 -78.125 110.875 C-72.43120017 113.97086835 -67.56006763 114.18232326 -61.1875 114.1875 C-60.40568359 114.19974609 -59.62386719 114.21199219 -58.81835938 114.22460938 C-47.4497773 114.25310206 -36.42455248 109.77451234 -28.3125 101.75 C-26.53300449 99.84892405 -25.1626643 98.32532859 -24 96 C-23.34 96 -22.68 96 -22 96 C-21.81824219 95.45472656 -21.63648438 94.90945312 -21.44921875 94.34765625 C-19 87 -19 87 -18.26904297 85.22241211 C-15.63671117 78.39303625 -15.52690904 71.90861459 -15.48828125 64.65234375 C-15.46135445 62.7736837 -15.46135445 62.7736837 -15.43388367 60.85707092 C-15.38913811 57.55770749 -15.35670763 54.2585366 -15.33044434 50.95898438 C-15.30044923 47.57994443 -15.25398508 44.20113315 -15.20898438 40.82226562 C-15.12428614 34.21495018 -15.05584362 27.60761896 -15 21 C-11.75249451 22.2664804 -8.86959363 23.66394916 -5.875 25.4375 C1.82815562 29.40650396 10.52566327 29.86610987 19 31 C18.67 24.73 18.34 18.46 18 12 C16.515 11.484375 15.03 10.96875 13.5 10.4375 C8.06404081 8.28479821 3.99529277 5.25197359 0 1 C0 0.67 0 0.34 0 0 Z " fill="#E41452" transform="translate(152,66)"/>
<path d="M0 0 C1.5631897 0.00785522 1.5631897 0.00785522 3.15795898 0.01586914 C4.28266602 0.0190918 5.40737305 0.02231445 6.56616211 0.02563477 C7.75016602 0.03401367 8.93416992 0.04239258 10.15405273 0.05102539 C11.34192383 0.05553711 12.52979492 0.06004883 13.75366211 0.06469727 C16.69967499 0.07652864 19.64558954 0.09301252 22.59155273 0.11352539 C23.25155273 2.09352539 23.91155273 4.07352539 24.59155273 6.11352539 C26.57155273 6.44352539 28.55155273 6.77352539 30.59155273 7.11352539 C30.59155273 9.42352539 30.59155273 11.73352539 30.59155273 14.11352539 C30.26155273 14.11352539 29.93155273 14.11352539 29.59155273 14.11352539 C29.59155273 12.13352539 29.59155273 10.15352539 29.59155273 8.11352539 C21.67155273 8.11352539 13.75155273 8.11352539 5.59155273 8.11352539 C5.6125 11.05492432 5.63344727 13.99632324 5.6550293 17.02685547 C5.72147573 26.77370553 5.76555851 36.5205659 5.79880142 46.26758289 C5.81962588 52.17395375 5.8478496 58.08009143 5.89331055 63.98632812 C5.93695156 69.69219423 5.96072847 75.39783684 5.97106171 81.10385704 C5.97842036 83.27463992 5.99278972 85.44541135 6.01447296 87.6160984 C6.25355559 112.55498749 6.25355559 112.55498749 0.21466064 119.75520325 C-1.28344727 121.11352539 -1.28344727 121.11352539 -4.40844727 123.11352539 C-5.33657227 123.71165039 -6.26469727 124.30977539 -7.22094727 124.92602539 C-12.47924465 126.88499893 -16.823723 127.04535731 -22.13891602 125.12915039 C-29.64668076 121.61902661 -29.64668076 121.61902661 -31.40844727 117.11352539 C-30.41844727 116.61852539 -30.41844727 116.61852539 -29.40844727 116.11352539 C-28.41844727 116.44352539 -27.42844727 116.77352539 -26.40844727 117.11352539 C-19.8944541 117.89726027 -14.81014854 116.90204891 -9.40844727 113.11352539 C-3.5794554 106.98561086 -4.10732609 100.91842769 -3.84594727 92.87915039 C-3.80348877 91.60581848 -3.76103027 90.33248657 -3.71728516 89.02056885 C-3.18162761 71.63982361 -3.33769787 54.24998246 -3.40844727 36.86352539 C-3.43217824 30.90663305 -3.45237556 24.94976431 -3.46438599 18.992836 C-3.47084702 16.63449035 -3.48332139 14.27622639 -3.49609375 11.91790771 C-3.49971976 10.49580963 -3.50307228 9.07371081 -3.50610352 7.65161133 C-3.51134033 6.40893494 -3.51657715 5.16625854 -3.52197266 3.88592529 C-3.36935355 0.158819 -3.36935355 0.158819 0 0 Z " fill="#29F0EB" transform="translate(114.408447265625,36.886474609375)"/>
<path d="M0 0 C0.98828125 1.7265625 0.98828125 1.7265625 0.98828125 4.7265625 C2.96828125 5.0565625 4.94828125 5.3865625 6.98828125 5.7265625 C6.98828125 6.0565625 6.98828125 6.3865625 6.98828125 6.7265625 C5.80685547 6.76523438 5.80685547 6.76523438 4.6015625 6.8046875 C-10.00751691 7.56539696 -22.12298794 11.20175992 -32.26171875 22.0390625 C-41.87837477 33.45644694 -43.7578091 44.02699515 -43.01171875 58.7265625 C-42.06615245 67.64951213 -38.00125052 76.07152719 -32.01171875 82.7265625 C-33.00171875 83.2215625 -33.00171875 83.2215625 -34.01171875 83.7265625 C-34.01171875 83.0665625 -34.01171875 82.4065625 -34.01171875 81.7265625 C-34.58019531 81.66855469 -35.14867188 81.61054688 -35.734375 81.55078125 C-40.91084385 79.67730796 -44.28192169 73.3620191 -47.01171875 68.7265625 C-53.17386347 55.38733157 -54.61496552 43.44841873 -49.890625 29.390625 C-44.6043713 16.78148729 -35.90772227 7.43558407 -23.3203125 2.1875 C-18.99679863 0.60094447 -14.76073516 -0.1250508 -10.19921875 -0.6484375 C-9.44962891 -0.75542969 -8.70003906 -0.86242187 -7.92773438 -0.97265625 C-2.55327327 -1.61624677 -2.55327327 -1.61624677 0 0 Z " fill="#1BE9E4" transform="translate(98.01171875,90.2734375)"/>
<path d="M0 0 C2.64 0 5.28 0 8 0 C8 8.25 8 16.5 8 25 C4.79081955 25.80229511 2.47616477 26.07961869 -0.75 26.1875 C-6.4692172 26.72816455 -10.0255819 28.92048911 -14 33 C-16.88338258 37.27856771 -18.18967821 41.83352696 -18 47 C-17.23202794 50.42407927 -16.19587787 53.70289039 -15 57 C-20.39631099 54.86657472 -23.60744311 52.25218665 -26 47 C-27.66418554 40.14927302 -27.42813172 34.2046351 -24 28 C-21.26445768 23.849522 -18.52259188 21.1053445 -14 19 C-9.27861057 18.66802731 -4.74440871 18.82096571 0 19 C0 12.73 0 6.46 0 0 Z " fill="#EB0F51" transform="translate(98,97)"/>
<path d="M0 0 C6.93 0 13.86 0 21 0 C21.66 1.65 22.32 3.3 23 5 C17.39 5 11.78 5 6 5 C6 37.67 6 70.34 6 104 C2 106 2 106 -1 106 C-0.67 71.02 -0.34 36.04 0 0 Z " fill="#09E2DB" transform="translate(114,40)"/>
<path d="M0 0 C0.61875 0.268125 1.2375 0.53625 1.875 0.8125 C6.86555554 2.70891111 12.02215561 4.38069094 17.25390625 5.46875 C17.83011719 5.6440625 18.40632813 5.819375 19 6 C19.28875 6.639375 19.5775 7.27875 19.875 7.9375 C20.90505873 10.34703737 20.90505873 10.34703737 24.125 11.25 C25.07375 11.4975 26.0225 11.745 27 12 C28.24883967 16.85548863 28.18372905 21.64734258 28.1875 26.625 C28.19974609 27.48351562 28.21199219 28.34203125 28.22460938 29.2265625 C28.22654297 30.0515625 28.22847656 30.8765625 28.23046875 31.7265625 C28.23457764 32.47502441 28.23868652 33.22348633 28.24291992 33.99462891 C28 36 28 36 26 39 C13.60367804 37.86536397 4.14755407 34.58002297 -7 29 C-6.99555878 29.65875122 -6.99111755 30.31750244 -6.98654175 30.99621582 C-6.94217138 37.87473372 -6.91207671 44.7532107 -6.89013672 51.63183594 C-6.88010155 54.19630587 -6.86647045 56.76076443 -6.84912109 59.32519531 C-6.82476379 63.01890884 -6.81349176 66.71247059 -6.8046875 70.40625 C-6.79436493 71.5461438 -6.78404236 72.6860376 -6.77340698 73.86047363 C-6.77255697 79.94042592 -7.21059954 85.17980474 -9 91 C-9.33 91 -9.66 91 -10 91 C-10.125 84.25 -10.125 84.25 -9 82 C-8.88068952 80.24409123 -8.82280132 78.48385393 -8.79467773 76.72412109 C-8.7647599 75.07263565 -8.7647599 75.07263565 -8.73423767 73.38778687 C-8.71752518 72.19505157 -8.70081268 71.00231628 -8.68359375 69.7734375 C-8.66281265 68.55548492 -8.64203156 67.33753235 -8.62062073 66.08267212 C-8.55507416 62.1801738 -8.49621645 58.2776065 -8.4375 54.375 C-8.39431965 51.73436778 -8.35070552 49.09374261 -8.30664062 46.453125 C-8.19938756 39.96882357 -8.09763071 33.48445306 -8 27 C-3.75502199 26.94154746 -0.28195949 27.29192834 3.8125 28.4375 C9.03111235 29.89533098 13.40807399 30.37867489 19 31 C18.505 21.595 18.505 21.595 18 12 C16.515 11.484375 15.03 10.96875 13.5 10.4375 C8.06404081 8.28479821 3.99529277 5.25197359 0 1 C0 0.67 0 0.34 0 0 Z " fill="#EB658E" transform="translate(152,66)"/>
<path d="M0 0 C1.25541557 3.76624671 0.37061958 5.37188934 -1 9 C-2.32 9 -3.64 9 -5 9 C-5.33 7.68 -5.66 6.36 -6 5 C-5.38125 4.9175 -4.7625 4.835 -4.125 4.75 C-1.81562433 4.18741541 -1.81562433 4.18741541 -0.75 1.9375 C-0.5025 1.298125 -0.255 0.65875 0 0 Z M-6 7 C-6.94933899 10.35433109 -7.89748835 13.69246505 -9 17 C-11.14453125 18.1328125 -11.14453125 18.1328125 -13.8125 19.125 C-15.12154297 19.62386719 -15.12154297 19.62386719 -16.45703125 20.1328125 C-27.85180233 24.01858697 -40.67236985 22.95925364 -51.46484375 17.828125 C-55.54205645 15.68709272 -58.97737985 13.54829322 -62 10 C-61.34 9.67 -60.68 9.34 -60 9 C-58.1953125 9.7421875 -58.1953125 9.7421875 -56.125 10.875 C-50.43120017 13.97086835 -45.56006763 14.18232326 -39.1875 14.1875 C-38.40568359 14.19974609 -37.62386719 14.21199219 -36.81835938 14.22460938 C-31.84781081 14.23706689 -27.77695143 13.5173167 -23 12 C-21.36088654 11.74411484 -19.71444365 11.52748711 -18.0625 11.375 C-17.29035156 11.30023438 -16.51820312 11.22546875 -15.72265625 11.1484375 C-15.15417969 11.09945312 -14.58570313 11.05046875 -14 11 C-14 10.34 -14 9.68 -14 9 C-8.25 7 -8.25 7 -6 7 Z " fill="#E41653" transform="translate(130,166)"/>
<path d="M0 0 C1.5631897 0.00785522 1.5631897 0.00785522 3.15795898 0.01586914 C4.28266602 0.0190918 5.40737305 0.02231445 6.56616211 0.02563477 C7.75016602 0.03401367 8.93416992 0.04239258 10.15405273 0.05102539 C11.34192383 0.05553711 12.52979492 0.06004883 13.75366211 0.06469727 C16.69967499 0.07652864 19.64558954 0.09301252 22.59155273 0.11352539 C23.25155273 2.09352539 23.91155273 4.07352539 24.59155273 6.11352539 C27.56155273 6.60852539 27.56155273 6.60852539 30.59155273 7.11352539 C30.59155273 9.42352539 30.59155273 11.73352539 30.59155273 14.11352539 C30.26155273 14.11352539 29.93155273 14.11352539 29.59155273 14.11352539 C29.59155273 12.13352539 29.59155273 10.15352539 29.59155273 8.11352539 C27.28155273 8.11352539 24.97155273 8.11352539 22.59155273 8.11352539 C22.59155273 6.13352539 22.59155273 4.15352539 22.59155273 2.11352539 C14.67155273 2.11352539 6.75155273 2.11352539 -1.40844727 2.11352539 C-1.40321045 5.18769775 -1.39797363 8.26187012 -1.39257812 11.42919922 C-1.37602939 21.5713075 -1.36497087 31.71341636 -1.35663509 41.85553455 C-1.35141018 48.00639877 -1.34431959 54.15724919 -1.33300781 60.30810547 C-1.32216509 66.24084802 -1.31616747 72.17357727 -1.31357002 78.10632896 C-1.31171828 80.37300514 -1.30810246 82.63968056 -1.30271721 84.90635109 C-1.29548845 88.07413955 -1.29445711 91.24187263 -1.29492188 94.40966797 C-1.2913266 95.35265747 -1.28773132 96.29564697 -1.2840271 97.26721191 C-1.28540176 98.12957962 -1.28677643 98.99194733 -1.28819275 99.88044739 C-1.28681006 101.00457393 -1.28681006 101.00457393 -1.28539944 102.1514101 C-1.40844727 104.11352539 -1.40844727 104.11352539 -2.40844727 107.11352539 C-3.06844727 107.11352539 -3.72844727 107.11352539 -4.40844727 107.11352539 C-4.36300781 106.01420181 -4.36300781 106.01420181 -4.31665039 104.89266968 C-3.67462638 88.83049452 -3.31597767 72.79055132 -3.34594727 56.71508789 C-3.34738739 55.89841393 -3.34882751 55.08173996 -3.35031128 54.2403183 C-3.36244073 48.4063566 -3.38459238 42.57244906 -3.40844727 36.73852539 C-3.43219245 30.79734077 -3.45237367 24.85617967 -3.46438599 18.91495895 C-3.47084315 16.56547207 -3.48331486 14.21606743 -3.49609375 11.86660767 C-3.4997194 10.45103017 -3.50307196 9.03545194 -3.50610352 7.61987305 C-3.51134033 6.38322906 -3.51657715 5.14658508 -3.52197266 3.87246704 C-3.36916248 0.15880999 -3.36916248 0.15880999 0 0 Z " fill="#92F6F5" transform="translate(114.408447265625,36.886474609375)"/>
<path d="M0 0 C7.92 0 15.84 0 24 0 C24 1.98 24 3.96 24 6 C24.66 6 25.32 6 26 6 C26.34933594 6.91523437 26.69867188 7.83046875 27.05859375 8.7734375 C27.51363281 9.96195313 27.96867187 11.15046875 28.4375 12.375 C29.11619141 14.15003906 29.11619141 14.15003906 29.80859375 15.9609375 C30.89271912 18.86036193 30.89271912 18.86036193 32 21 C30.35 21 28.7 21 27 21 C26.89429688 20.43023437 26.78859375 19.86046875 26.6796875 19.2734375 C25.89191293 16.63846737 24.7077752 14.86923349 23.125 12.625 C20.6570934 9.11536398 18.96837252 5.93674504 17 2 C12.05 2.33 7.1 2.66 2 3 C1.98969254 4.24836639 1.97938507 5.49673279 1.96876526 6.78292847 C1.87116975 18.52583968 1.76844904 30.26869627 1.66066074 42.01151848 C1.6054068 48.04916402 1.55198285 54.08681437 1.50268555 60.12451172 C1.45507846 65.94706679 1.402737 71.76956153 1.34705925 77.59204483 C1.3266191 79.81766388 1.30790882 82.04329949 1.29092598 84.2689476 C1.26691869 87.37711343 1.23685913 90.48516448 1.20532227 93.59326172 C1.1995668 94.52114502 1.19381134 95.44902832 1.18788147 96.4050293 C1.17809265 97.24919403 1.16830383 98.09335876 1.15821838 98.96310425 C1.14853956 100.06649045 1.14853956 100.06649045 1.1386652 101.19216728 C1 103 1 103 0 105 C-0.66 105 -1.32 105 -2 105 C-1.83923477 104.21148651 -1.67846954 103.42297302 -1.51283264 102.61056519 C-0.87627983 98.1289561 -0.82345561 93.7518021 -0.79467773 89.23095703 C-0.78477814 88.26447739 -0.77487854 87.29799774 -0.76467896 86.30223083 C-0.73319541 83.12078263 -0.70835864 79.93931951 -0.68359375 76.7578125 C-0.66301287 74.54677959 -0.6420161 72.33575052 -0.62062073 70.12472534 C-0.56551722 64.31497306 -0.51605636 58.50518597 -0.46777344 52.69537354 C-0.4174727 46.76303013 -0.36183143 40.83073707 -0.30664062 34.8984375 C-0.19920245 23.26566648 -0.0982195 11.63285251 0 0 Z " fill="#001D1D" transform="translate(120,45)"/>
<path d="M0 0 C0.88672454 2.4828287 1.14518218 3.62029277 0.1875 6.125 C-1 8 -1 8 -3 10 C-3.36760731 12.32817964 -3.70241581 14.6618385 -4 17 C-4.33 17.33 -4.66 17.66 -5 18 C-5.25288599 21.20038909 -5.18523682 24.41581342 -5.1875 27.625 C-5.19974609 28.51574219 -5.21199219 29.40648437 -5.22460938 30.32421875 C-5.22654297 31.19949219 -5.22847656 32.07476562 -5.23046875 32.9765625 C-5.23457764 33.77143066 -5.23868652 34.56629883 -5.24291992 35.38525391 C-5.00799488 38.78732108 -5.00799488 38.78732108 -3 45 C-2.67 39.39 -2.34 33.78 -2 28 C-1.67 28 -1.34 28 -1 28 C-0.90203125 29.25554687 -0.8040625 30.51109375 -0.703125 31.8046875 C0.4265993 44.95546656 2.32977825 54.65353538 11 65 C10.01 65.495 10.01 65.495 9 66 C9 65.34 9 64.68 9 64 C8.43152344 63.94199219 7.86304687 63.88398438 7.27734375 63.82421875 C2.1008749 61.95074546 -1.27020294 55.6354566 -4 51 C-9.63924376 38.79269586 -11.31811681 28.07903443 -8 15 C-3.63715278 3.63715278 -3.63715278 3.63715278 0 0 Z " fill="#3ADAD2" transform="translate(55,108)"/>
<path d="M0 0 C0.9765625 1.73046875 0.9765625 1.73046875 0.9765625 4.73046875 C2.9565625 5.06046875 4.9365625 5.39046875 6.9765625 5.73046875 C6.9765625 6.06046875 6.9765625 6.39046875 6.9765625 6.73046875 C5.79513672 6.76914063 5.79513672 6.76914063 4.58984375 6.80859375 C-8.66996456 7.49904531 -20.84927341 10.37574684 -30.3515625 20.1171875 C-32.29621838 22.282827 -34.18409033 24.47513843 -36.0234375 26.73046875 C-36.3534375 25.41046875 -36.6834375 24.09046875 -37.0234375 22.73046875 C-36.3634375 22.73046875 -35.7034375 22.73046875 -35.0234375 22.73046875 C-34.7965625 21.98796875 -34.5696875 21.24546875 -34.3359375 20.48046875 C-32.7644814 17.18789405 -31.02348034 15.75549766 -28.0234375 13.73046875 C-27.3634375 13.73046875 -26.7034375 13.73046875 -26.0234375 13.73046875 C-25.6934375 12.74046875 -25.3634375 11.75046875 -25.0234375 10.73046875 C-22.81344399 9.25713974 -21.02173129 8.73018438 -18.3984375 8.29296875 C-13.7892648 7.5247733 -9.48531395 6.11726819 -5.0234375 4.73046875 C-10.3034375 4.73046875 -15.5834375 4.73046875 -21.0234375 4.73046875 C-21.3534375 5.39046875 -21.6834375 6.05046875 -22.0234375 6.73046875 C-24.35354659 7.40831867 -26.68703574 8.07463668 -29.0234375 8.73046875 C-29.6834375 9.39046875 -30.3434375 10.05046875 -31.0234375 10.73046875 C-31.8071875 10.99859375 -32.5909375 11.26671875 -33.3984375 11.54296875 C-36.6221385 13.00130968 -37.90476493 14.95427711 -40.0234375 17.73046875 C-40.6834375 17.73046875 -41.3434375 17.73046875 -42.0234375 17.73046875 C-38.74768659 10.18631514 -31.34553927 5.81422818 -24.0234375 2.73046875 C-23.29769531 2.39273438 -22.57195312 2.055 -21.82421875 1.70703125 C-18.0580872 0.3938752 -14.34609802 -0.10036277 -10.3984375 -0.58203125 C-9.25375 -0.74928711 -9.25375 -0.74928711 -8.0859375 -0.91992188 C-2.55629274 -1.60385162 -2.55629274 -1.60385162 0 0 Z " fill="#2BE1D8" transform="translate(98.0234375,90.26953125)"/>
<path d="M0 0 C0.33 0 0.66 0 1 0 C1 3.63 1 7.26 1 11 C-4.03925546 14.10108028 -8.22645446 14.99448631 -14 14 C-22.9508105 10.77309836 -22.9508105 10.77309836 -25.28515625 6.828125 C-25.52105469 6.22484375 -25.75695312 5.6215625 -26 5 C-25.34 4.67 -24.68 4.34 -24 4 C-23.01 4.33 -22.02 4.66 -21 5 C-15.84333382 5.41523716 -11.74239804 5.17893964 -7 3 C-5.9275 2.835 -4.855 2.67 -3.75 2.5 C-2.38875 2.2525 -2.38875 2.2525 -1 2 C-0.67 1.34 -0.34 0.68 0 0 Z " fill="#14EDE6" transform="translate(109,149)"/>
<path d="M0 0 C0.99 0.33 1.98 0.66 3 1 C3 18.16 3 35.32 3 53 C1.68 53 0.36 53 -1 53 C-1.02537362 46.25562341 -1.04287685 39.51125916 -1.05493164 32.7668457 C-1.05995761 30.47289571 -1.06677938 28.17894892 -1.07543945 25.88500977 C-1.08758096 22.58609222 -1.09324572 19.28721707 -1.09765625 15.98828125 C-1.10281754 14.96414627 -1.10797882 13.94001129 -1.11329651 12.88484192 C-1.11337204 11.92422348 -1.11344757 10.96360504 -1.11352539 9.97387695 C-1.115746 9.13226517 -1.11796661 8.29065338 -1.12025452 7.42353821 C-0.99333791 4.86573618 -0.56187588 2.49545389 0 0 Z " fill="#F6044A" transform="translate(140,91)"/>
<path d="M0 0 C5.61 0 11.22 0 17 0 C13.8799811 3.1200189 12.73430319 3.60048879 8.625 4.625 C7.68914062 4.86476563 6.75328125 5.10453125 5.7890625 5.3515625 C3.9713521 5.77416744 2.14237362 6.15163829 0.3046875 6.4765625 C-3.98813465 7.45154244 -6.65424931 10.65424931 -9.6875 13.6875 C-12 16 -12 16 -14 17 C-14 17.66 -14 18.32 -14 19 C-14.66 19 -15.32 19 -16 19 C-16 20.32 -16 21.64 -16 23 C-16.66 23 -17.32 23 -18 23 C-18.66 24.32 -19.32 25.64 -20 27 C-20.33 26.01 -20.66 25.02 -21 24 C-20.01 22.515 -20.01 22.515 -19 21 C-19.3121764 18.35367713 -19.3121764 18.35367713 -20 16 C-19.01 15.34 -18.02 14.68 -17 14 C-16.4225 12.88625 -15.845 11.7725 -15.25 10.625 C-12.92973088 6.36672832 -10.41957834 4.93841155 -6 3 C-3.0625 2.75 -3.0625 2.75 -1 3 C-0.67 2.01 -0.34 1.02 0 0 Z " fill="#0DEFEA" transform="translate(77,94)"/>
<path d="M0 0 C0.639375 0.268125 1.27875 0.53625 1.9375 0.8125 C3.4534375 1.4003125 3.4534375 1.4003125 5 2 C5.60408691 2.25410645 6.20817383 2.50821289 6.83056641 2.77001953 C13.42596109 5.30338065 19.44239416 5.28787423 26.4375 5.0625 C28.58180037 5.00275956 30.72636037 4.95152945 32.87109375 4.91015625 C33.80880615 4.88058838 34.74651855 4.85102051 35.71264648 4.82055664 C38 5 38 5 40 7 C33.62641289 7.96205088 27.44070471 8.10655578 21 8 C21 8.66 21 9.32 21 10 C30.06335876 10.10234659 38.98175113 10.06996173 48 9 C48 8.34 48 7.68 48 7 C49.65 7 51.3 7 53 7 C44.35433107 13.95158515 33.5870242 13.78621848 23 13 C14.63663892 11.56341734 5.4871326 7.67998752 0 1 C0 0.67 0 0.34 0 0 Z " fill="#EB5B88" transform="translate(68,175)"/>
<path d="M0 0 C0.61875 0.268125 1.2375 0.53625 1.875 0.8125 C6.86555554 2.70891111 12.02215561 4.38069094 17.25390625 5.46875 C17.83011719 5.6440625 18.40632813 5.819375 19 6 C19.28875 6.639375 19.5775 7.27875 19.875 7.9375 C20.90505873 10.34703737 20.90505873 10.34703737 24.125 11.25 C25.07375 11.4975 26.0225 11.745 27 12 C28.24883967 16.85548863 28.18372905 21.64734258 28.1875 26.625 C28.19974609 27.48351562 28.21199219 28.34203125 28.22460938 29.2265625 C28.22750977 30.4640625 28.22750977 30.4640625 28.23046875 31.7265625 C28.23457764 32.47502441 28.23868652 33.22348633 28.24291992 33.99462891 C28 36 28 36 26 39 C23.03 38.67 20.06 38.34 17 38 C17 37.67 17 37.34 17 37 C19.97 37 22.94 37 26 37 C26 29.08 26 21.16 26 13 C24.02 13 22.04 13 20 13 C12.15039441 10.72884745 5.53283799 7.05357568 0 1 C0 0.67 0 0.34 0 0 Z " fill="#39DCD7" transform="translate(152,66)"/>
<path d="M0 0 C0.99 0 1.98 0 3 0 C2.27699775 7.71202404 -3.66302237 14.71433946 -9 20 C-11.26815475 21.81086548 -13.57326871 23.39835735 -16 25 C-16.66 24.67 -17.32 24.34 -18 24 C-18 22.68 -18 21.36 -18 20 C-17.34 20 -16.68 20 -16 20 C-15.34 18.68 -14.68 17.36 -14 16 C-14 16.66 -14 17.32 -14 18 C-11.92064793 17.5899433 -11.92064793 17.5899433 -10 16 C-9.31209578 13.30341548 -9.18053536 10.7982981 -9 8 C-8.01 7.67 -7.02 7.34 -6 7 C-5.34 6.34 -4.68 5.68 -4 5 C-4 5.66 -4 6.32 -4 7 C-3.34 7 -2.68 7 -2 7 C-1.34 4.69 -0.68 2.38 0 0 Z " fill="#E91151" transform="translate(139,157)"/>
<path d="M0 0 C1.5631897 0.00785522 1.5631897 0.00785522 3.15795898 0.01586914 C4.28266602 0.0190918 5.40737305 0.02231445 6.56616211 0.02563477 C7.75016602 0.03401367 8.93416992 0.04239258 10.15405273 0.05102539 C11.34192383 0.05553711 12.52979492 0.06004883 13.75366211 0.06469727 C16.69967499 0.07652864 19.64558954 0.09301252 22.59155273 0.11352539 C23.25155273 2.09352539 23.91155273 4.07352539 24.59155273 6.11352539 C27.56155273 6.60852539 27.56155273 6.60852539 30.59155273 7.11352539 C30.59155273 9.42352539 30.59155273 11.73352539 30.59155273 14.11352539 C30.26155273 14.11352539 29.93155273 14.11352539 29.59155273 14.11352539 C29.59155273 12.13352539 29.59155273 10.15352539 29.59155273 8.11352539 C27.28155273 8.11352539 24.97155273 8.11352539 22.59155273 8.11352539 C22.59155273 6.13352539 22.59155273 4.15352539 22.59155273 2.11352539 C14.67155273 2.44352539 6.75155273 2.77352539 -1.40844727 3.11352539 C-1.73844727 16.31352539 -2.06844727 29.51352539 -2.40844727 43.11352539 C-2.73844727 43.11352539 -3.06844727 43.11352539 -3.40844727 43.11352539 C-3.43309301 37.15039373 -3.45128126 31.18729144 -3.46337891 25.22412109 C-3.46842005 23.19384241 -3.47525283 21.16356737 -3.48388672 19.13330078 C-3.49596194 16.22175192 -3.50167761 13.31025089 -3.50610352 10.39868164 C-3.5112648 9.4851442 -3.51642609 8.57160675 -3.52174377 7.63038635 C-3.52193895 5.45777112 -3.47056531 3.28525243 -3.40844727 1.11352539 C-2.40844727 0.11352539 -2.40844727 0.11352539 0 0 Z " fill="#C1F2F2" transform="translate(114.408447265625,36.886474609375)"/>
<path d="M0 0 C0.99 0.33 1.98 0.66 3 1 C-8.48349193 11.29554449 -20.19232627 12.64327739 -34.90820312 12.14941406 C-39.04607143 11.85385204 -42.26719016 10.76460102 -46 9 C-46.33 8.34 -46.66 7.68 -47 7 C-45.13601562 7.48533203 -45.13601562 7.48533203 -43.234375 7.98046875 C-37.56138795 9.23656671 -32.04097033 9.33118055 -26.25 9.3125 C-24.72826172 9.33666992 -24.72826172 9.33666992 -23.17578125 9.36132812 C-17.86727088 9.36481598 -14.39403735 9.27822865 -10 6 C-9.01 6 -8.02 6 -7 6 C-6.67 5.01 -6.34 4.02 -6 3 C-4.02 2.67 -2.04 2.34 0 2 C0 1.34 0 0.68 0 0 Z " fill="#4A0211" transform="translate(119,169)"/>
<path d="M0 0 C0.99 0.33 1.98 0.66 3 1 C2.34 2.98 1.68 4.96 1 7 C1.66 7 2.32 7 3 7 C2.67 8.32 2.34 9.64 2 11 C0.35 11.33 -1.3 11.66 -3 12 C-3 11.34 -3 10.68 -3 10 C-5.475 11.485 -5.475 11.485 -8 13 C-8 12.01 -8 11.02 -8 10 C-8.99 9.67 -9.98 9.34 -11 9 C-9.54405245 7.68485396 -8.08516421 6.37296283 -6.625 5.0625 C-5.81289062 4.33160156 -5.00078125 3.60070312 -4.1640625 2.84765625 C-2 1 -2 1 0 0 Z " fill="#080606" transform="translate(77,102)"/>
<path d="M0 0 C1.25541557 3.76624671 0.37061958 5.37188934 -1 9 C-2.32 9 -3.64 9 -5 9 C-5.33 7.68 -5.66 6.36 -6 5 C-5.38125 4.9175 -4.7625 4.835 -4.125 4.75 C-1.81562433 4.18741541 -1.81562433 4.18741541 -0.75 1.9375 C-0.5025 1.298125 -0.255 0.65875 0 0 Z M-6 7 C-7.625 12.75 -7.625 12.75 -11 15 C-16.90207715 17.5727003 -16.90207715 17.5727003 -20 18 C-20.66 17.34 -21.32 16.68 -22 16 C-20.25 13.5 -20.25 13.5 -18 11 C-16.68 11 -15.36 11 -14 11 C-14 10.34 -14 9.68 -14 9 C-8.25 7 -8.25 7 -6 7 Z " fill="#F5064D" transform="translate(130,166)"/>
<path d="M0 0 C1.98 0 3.96 0 6 0 C6 1.98 6 3.96 6 6 C6.66 6 7.32 6 8 6 C8.34933594 6.91523437 8.69867188 7.83046875 9.05859375 8.7734375 C9.51363281 9.96195313 9.96867188 11.15046875 10.4375 12.375 C11.11619141 14.15003906 11.11619141 14.15003906 11.80859375 15.9609375 C12.89271912 18.86036193 12.89271912 18.86036193 14 21 C12.35 21 10.7 21 9 21 C8.89558594 20.43152344 8.79117188 19.86304687 8.68359375 19.27734375 C7.8846189 16.61561609 6.66711382 14.8262217 5.0625 12.5625 C2.20490213 8.52535313 0 5.05025443 0 0 Z " fill="#D82256" transform="translate(138,45)"/>
<path d="M0 0 C2.64 0 5.28 0 8 0 C8 8.25 8 16.5 8 25 C4.73118027 25.81720493 2.53000931 26.11073543 -0.75 26.0625 C-1.54921875 26.05347656 -2.3484375 26.04445313 -3.171875 26.03515625 C-3.77515625 26.02355469 -4.3784375 26.01195313 -5 26 C-2 24 -2 24 5 23 C5.33 15.74 5.66 8.48 6 1 C4.35 1 2.7 1 1 1 C1 6.94 1 12.88 1 19 C0.67 19 0.34 19 0 19 C0 12.73 0 6.46 0 0 Z " fill="#E26F8F" transform="translate(98,97)"/>
<path d="M0 0 C0.88672454 2.4828287 1.14518218 3.62029277 0.1875 6.125 C-1 8 -1 8 -3 10 C-3.144375 11.134375 -3.28875 12.26875 -3.4375 13.4375 C-4 17 -4 17 -5.51953125 18.33203125 C-8.7391008 21.95935631 -7.23702502 28.41384156 -7 33 C-6.87712803 37.34902711 -6.87712803 37.34902711 -5 41 C-4.95936168 42.66617115 -4.957279 44.33388095 -5 46 C-8.98915818 42.01084182 -9.4684204 35.47111898 -10 30 C-9.88557251 19.86796557 -7.46277166 7.46277166 0 0 Z " fill="#91F6F2" transform="translate(55,108)"/>
<path d="M0 0 C0.33 0.66 0.66 1.32 1 2 C1.66 2 2.32 2 3 2 C4.01973129 5.05919388 4.11533602 7.12418025 4.09765625 10.32421875 C4.09282227 11.86625977 4.09282227 11.86625977 4.08789062 13.43945312 C4.07951172 14.51130859 4.07113281 15.58316406 4.0625 16.6875 C4.05798828 17.77095703 4.05347656 18.85441406 4.04882812 19.97070312 C4.03703743 22.64719085 4.02058063 25.32356777 4 28 C2 27 2 27 0.8828125 24.08984375 C-0.37336216 19.28024351 -0.21741897 14.49980549 -0.125 9.5625 C-0.11597656 8.64017578 -0.10695312 7.71785156 -0.09765625 6.76757812 C-0.0742766 4.51144191 -0.04150916 2.25586316 0 0 Z " fill="#0DEDE6" transform="translate(49,126)"/>
<path d="M0 0 C3.01064601 1.41677459 5.65370541 3.09031959 8.375 5 C11.81783368 7.33316002 14.93213166 8.95695684 19 10 C18.67 10.99 18.34 11.98 18 13 C16.68 12.67 15.36 12.34 14 12 C14 11.34 14 10.68 14 10 C13.01 10.495 13.01 10.495 12 11 C9.9907774 11 7.98098092 10.99756205 5.97265625 10.9375 C3.7852789 10.91266984 3.7852789 10.91266984 1 12 C1 8.49064814 1.37542727 5.43515002 2 2 C1.34 2 0.68 2 0 2 C0 1.34 0 0.68 0 0 Z " fill="#070D10" transform="translate(151,67)"/>
<path d="M0 0 C1.640625 1.515625 1.640625 1.515625 3 3 C2.443125 3.14695312 1.88625 3.29390625 1.3125 3.4453125 C-6.1738739 5.64569942 -11.59369663 9.42785911 -17 15 C-16.7357513 9.62694301 -16.7357513 9.62694301 -16 7 C-13.4375 5 -13.4375 5 -11 4 C-11.33 3.01 -11.66 2.02 -12 1 C-3.29268293 -0.36585366 -3.29268293 -0.36585366 0 0 Z " fill="#EA1151" transform="translate(98,118)"/>
<path d="M0 0 C0.66 0.66 1.32 1.32 2 2 C1.87109375 4.25 1.87109375 4.25 1.4375 7 C0.74690278 12.9407056 1.87737287 17.47157566 4 23 C-1.66153846 20.53846154 -1.66153846 20.53846154 -3.375 17.8125 C-3.58125 17.214375 -3.7875 16.61625 -4 16 C-3.34 16 -2.68 16 -2 16 C-2.02320312 15.01257813 -2.04640625 14.02515625 -2.0703125 13.0078125 C-2.08835937 11.72648438 -2.10640625 10.44515625 -2.125 9.125 C-2.14820312 7.84882813 -2.17140625 6.57265625 -2.1953125 5.2578125 C-2 2 -2 2 0 0 Z " fill="#E46289" transform="translate(79,131)"/>
<path d="M0 0 C5.75 1.75 5.75 1.75 8 4 C6.68 4 5.36 4 4 4 C4 22.15 4 40.3 4 59 C3.67 59 3.34 59 3 59 C3 40.52 3 22.04 3 3 C2.01 2.67 1.02 2.34 0 2 C0 1.34 0 0.68 0 0 Z " fill="#E33666" transform="translate(140,89)"/>
<path d="M0 0 C4.29 0 8.58 0 13 0 C12.67 0.66 12.34 1.32 12 2 C10.68 2 9.36 2 8 2 C8 2.66 8 3.32 8 4 C17.05370885 4.20720114 17.05370885 4.20720114 26 3 C21.64098377 6.34191245 19.07180635 7.39494679 13.59375 7.359375 C8.95029606 6.71600488 4.89459854 4.55003476 1 2 C0.67 1.34 0.34 0.68 0 0 Z " fill="#3BD9D2" transform="translate(84,156)"/>
<path d="M0 0 C0.33 0.99 0.66 1.98 1 3 C0.525625 3.5775 0.05125 4.155 -0.4375 4.75 C-2.34461413 7.03969004 -2.34461413 7.03969004 -2 10.625 C-2 11.73875 -2 12.8525 -2 14 C-2.99 14.66 -3.98 15.32 -5 16 C-5.40729228 18.32156597 -5.74438677 20.6568787 -6 23 C-6.33 23.33 -6.66 23.66 -7 24 C-7.23363881 25.84891946 -7.41303635 27.70488031 -7.5625 29.5625 C-7.64628906 30.57441406 -7.73007812 31.58632812 -7.81640625 32.62890625 C-7.90728516 33.80259766 -7.90728516 33.80259766 -8 35 C-8.33 35 -8.66 35 -9 35 C-9.50156324 21.06768769 -7.73469999 11.76475403 0 0 Z " fill="#012528" transform="translate(63,114)"/>
<path d="M0 0 C1.65 0 3.3 0 5 0 C4.67 4.95 4.34 9.9 4 15 C2.68 15.33 1.36 15.66 0 16 C0 10.72 0 5.44 0 0 Z " fill="#F40952" transform="translate(172,80)"/>
<path d="M0 0 C0.99 1.32 1.98 2.64 3 4 C2.34 4.66 1.68 5.32 1 6 C0.34 5.67 -0.32 5.34 -1 5 C-1.226875 5.639375 -1.45375 6.27875 -1.6875 6.9375 C-3 9 -3 9 -5.625 9.75 C-6.800625 9.87375 -6.800625 9.87375 -8 10 C-8 10.66 -8 11.32 -8 12 C-13.39063366 13.36904982 -18.39373256 14.44850139 -24 14 C-24.99 13.34 -25.98 12.68 -27 12 C-27 11.34 -27 10.68 -27 10 C-26.360625 10.165 -25.72125 10.33 -25.0625 10.5 C-17.66585943 11.70761479 -12.48577547 11.4975492 -5.953125 7.51171875 C-3.1340089 5.32972289 -1.67406633 3.12977618 0 0 Z " fill="#01252E" transform="translate(117,151)"/>
<path d="M0 0 C0.33 0 0.66 0 1 0 C1.01981934 0.59949463 1.03963867 1.19898926 1.06005859 1.81665039 C1.15605003 4.56566471 1.26542505 7.31399493 1.375 10.0625 C1.4059375 11.00544922 1.436875 11.94839844 1.46875 12.91992188 C1.69410799 18.30973379 2.39060734 22.86433643 4 28 C4 29.32 4 30.64 4 32 C4.66 32 5.32 32 6 32 C6.66 34.31 7.32 36.62 8 39 C3.20006493 35.21057758 2.24703058 32.10992673 1.359375 26.109375 C1.21258797 24.01982003 1.21258797 24.01982003 0 23 C-1.47302108 15.79856361 -2.33596689 7.00790068 0 0 Z " fill="#44EAE2" transform="translate(48,125)"/>
<path d="M0 0 C0.33 0 0.66 0 1 0 C1 5.28 1 10.56 1 16 C-2.515625 16.16276042 -6.03125 16.32552083 -9.546875 16.48828125 C-13.08711591 17.01290971 -14.37139202 17.70918043 -17 20 C-17.66 20 -18.32 20 -19 20 C-18.505 18.515 -18.505 18.515 -18 17 C-17.34 16.67 -16.68 16.34 -16 16 C-16 15.01 -16 14.02 -16 13 C-10.72 13 -5.44 13 0 13 C0 8.71 0 4.42 0 0 Z " fill="#33030A" transform="translate(97,100)"/>
<path d="M0 0 C0.86625 0.7115625 0.86625 0.7115625 1.75 1.4375 C3.92582084 2.9484867 5.42602448 3.54036151 8 4 C9.24883967 8.85548863 9.18372905 13.64734258 9.1875 18.625 C9.19974609 19.48351562 9.21199219 20.34203125 9.22460938 21.2265625 C9.22750977 22.4640625 9.22750977 22.4640625 9.23046875 23.7265625 C9.23457764 24.47502441 9.23868652 25.22348633 9.24291992 25.99462891 C9 28 9 28 7 31 C4.03 30.67 1.06 30.34 -2 30 C-2 29.67 -2 29.34 -2 29 C0.97 29 3.94 29 7 29 C7 21.08 7 13.16 7 5 C5.02 5 3.04 5 1 5 C0.67 3.35 0.34 1.7 0 0 Z " fill="#FBBBD0" transform="translate(171,74)"/>
<path d="M0 0 C1.5625 1.1875 1.5625 1.1875 3 3 C2.6875 5.6875 2.6875 5.6875 2 8 C1.34 8 0.68 8 0 8 C0 8.66 0 9.32 0 10 C-0.66 10 -1.32 10 -2 10 C-2 11.32 -2 12.64 -2 14 C-2.66 14 -3.32 14 -4 14 C-4.66 15.32 -5.32 16.64 -6 18 C-6.33 17.01 -6.66 16.02 -7 15 C-6.34 14.01 -5.68 13.02 -5 12 C-5.3121764 9.35367713 -5.3121764 9.35367713 -6 7 C-5.01 6.34 -4.02 5.68 -3 5 C-1.94895617 3.36504293 -0.94011682 1.70116376 0 0 Z " fill="#08F0E9" transform="translate(63,103)"/>
<path d="M0 0 C-0.33 1.65 -0.66 3.3 -1 5 C-7.15901243 6.23180249 -12.78675502 5.73030908 -19 5 C-13.41631348 1.27754232 -6.71593812 -0.53020564 0 0 Z " fill="#0A050C" transform="translate(98,97)"/>
<path d="M0 0 C0.66 0.33 1.32 0.66 2 1 C0.13501059 4.29115778 -0.8580255 4.95516595 -4.5625 6.125 C-5.696875 6.41375 -6.83125 6.7025 -8 7 C-8.66 7.66 -9.32 8.32 -10 9 C-10.78375 9.268125 -11.5675 9.53625 -12.375 9.8125 C-15.598701 11.27084093 -16.88132743 13.22380836 -19 16 C-19.66 16 -20.32 16 -21 16 C-17.74104946 8.49453816 -10.32461482 4.02079458 -3 1 C-2.01 0.67 -1.02 0.34 0 0 Z " fill="#8FF1EF" transform="translate(77,92)"/>
<path d="M0 0 C1.5843317 0.08768248 3.16753567 0.19587329 4.75 0.3125 C6.07257813 0.39951172 6.07257813 0.39951172 7.421875 0.48828125 C10.34224732 1.06793091 11.73049518 2.1292585 14 4 C15.0209375 4.2165625 15.0209375 4.2165625 16.0625 4.4375 C18.73409388 5.21312403 19.52872975 6.71953111 21 9 C12.86289005 8.84044882 6.87116243 5.01166953 0 1 C0 0.67 0 0.34 0 0 Z " fill="#280408" transform="translate(139,87)"/>
<path d="M0 0 C4.62 0.99 9.24 1.98 14 3 C13.01 4.485 13.01 4.485 12 6 C14.64 6.99 17.28 7.98 20 9 C20 9.33 20 9.66 20 10 C13.18382175 9.50427795 6.56488465 8.05109862 1.23828125 3.4921875 C0 2 0 2 0 0 Z " fill="#E67196" transform="translate(148,93)"/>
<path d="M0 0 C2.31 0.33 4.62 0.66 7 1 C7 8.92 7 16.84 7 25 C-3 25 -3 25 -6 23 C-2.37 22.67 1.26 22.34 5 22 C5.33 15.4 5.66 8.8 6 2 C4.02 2 2.04 2 0 2 C0 1.34 0 0.68 0 0 Z " fill="#D73265" transform="translate(171,78)"/>
<path d="M0 0 C1.07507813 0.43505859 1.07507813 0.43505859 2.171875 0.87890625 C3.98559021 1.59787899 5.808099 2.29526694 7.640625 2.96484375 C8.50171875 3.28582031 9.3628125 3.60679687 10.25 3.9375 C11.55710937 4.41509766 11.55710937 4.41509766 12.890625 4.90234375 C15 6 15 6 16 9 C16.66 9.66 17.32 10.32 18 11 C11.09679374 9.89207801 4.48430676 6.45915606 0 1 C0 0.67 0 0.34 0 0 Z " fill="#DF759A" transform="translate(68,175)"/>
<path d="M0 0 C0.66 0 1.32 0 2 0 C1.43174347 5.54050113 -0.62886517 10.03715966 -3 15 C-3.66 15 -4.32 15 -5 15 C-5.433125 15.9590625 -5.433125 15.9590625 -5.875 16.9375 C-7 19 -7 19 -9 20 C-9 18.35 -9 16.7 -9 15 C-7.35 14.34 -5.7 13.68 -4 13 C-4.33 11.35 -4.66 9.7 -5 8 C-4.01 8.33 -3.02 8.66 -2 9 C-2 7.68 -2 6.36 -2 5 C-1.34 5 -0.68 5 0 5 C0 3.35 0 1.7 0 0 Z " fill="#3A010D" transform="translate(133,147)"/>
<path d="M0 0 C0.66 0 1.32 0 2 0 C2.37344442 6.97096259 1.14584821 11.70830358 -2 18 C-2.66 18 -3.32 18 -4 18 C-2.07289294 5.33029613 -2.07289294 5.33029613 0 0 Z " fill="#FC044F" transform="translate(139,146)"/>
<path d="M0 0 C0.33 0 0.66 0 1 0 C1 5.28 1 10.56 1 16 C-0.98 16 -2.96 16 -5 16 C-4.67 14.68 -4.34 13.36 -4 12 C-3.01 12 -2.02 12 -1 12 C-1.185625 11.113125 -1.37125 10.22625 -1.5625 9.3125 C-1.98252224 6.13233158 -1.87291022 4.05518576 -1 1 C-0.67 0.67 -0.34 0.34 0 0 Z " fill="#F7044F" transform="translate(102,104)"/>
<path d="M0 0 C0 0.99 0 1.98 0 3 C-2.1875 5.04296875 -2.1875 5.04296875 -5 7.1875 C-5.928125 7.90292969 -6.85625 8.61835938 -7.8125 9.35546875 C-8.8953125 10.16951172 -8.8953125 10.16951172 -10 11 C-10.66 10.67 -11.32 10.34 -12 10 C-12 8.68 -12 7.36 -12 6 C-11.34 6 -10.68 6 -10 6 C-9.34 4.68 -8.68 3.36 -8 2 C-8 2.66 -8 3.32 -8 4 C-3.58477891 2.73025028 -3.58477891 2.73025028 0 0 Z " fill="#EF5F8D" transform="translate(133,171)"/>
<path d="M0 0 C1.24926758 1.6965332 1.24926758 1.6965332 1.24926758 4.6965332 C4.21926758 5.1915332 4.21926758 5.1915332 7.24926758 5.6965332 C7.24926758 6.0265332 7.24926758 6.3565332 7.24926758 6.6965332 C4.93926758 6.6965332 2.62926758 6.6965332 0.24926758 6.6965332 C-0.08073242 5.3765332 -0.41073242 4.0565332 -0.75073242 2.6965332 C-6.69073242 2.3665332 -12.63073242 2.0365332 -18.75073242 1.6965332 C-18.75073242 1.3665332 -18.75073242 1.0365332 -18.75073242 0.6965332 C-15.98157169 0.28041067 -13.21249746 -0.11194433 -10.43823242 -0.4909668 C-9.25970703 -0.67175781 -9.25970703 -0.67175781 -8.05737305 -0.85620117 C-7.30004883 -0.95610352 -6.54272461 -1.05600586 -5.76245117 -1.15893555 C-5.06595459 -1.25843506 -4.36945801 -1.35793457 -3.65185547 -1.46044922 C-1.75073242 -1.3034668 -1.75073242 -1.3034668 0 0 Z " fill="#B6F0F1" transform="translate(97.750732421875,90.303466796875)"/>
<path d="M0 0 C-0.33 0.66 -0.66 1.32 -1 2 C-0.34 2 0.32 2 1 2 C1.33 2.99 1.66 3.98 2 5 C1.01 5.495 1.01 5.495 0 6 C0 5.34 0 4.68 0 4 C-0.763125 4.20625 -1.52625 4.4125 -2.3125 4.625 C-5 5 -5 5 -8 3 C-7.67 1.68 -7.34 0.36 -7 -1 C-3.51418144 -2.2020064 -3.32007656 -2.21338437 0 0 Z " fill="#120809" transform="translate(152,67)"/>
<path d="M0 0 C1.90845703 0.04060547 1.90845703 0.04060547 3.85546875 0.08203125 C5.31919922 0.13423828 5.31919922 0.13423828 6.8125 0.1875 C6.8125 0.8475 6.8125 1.5075 6.8125 2.1875 C0.72998904 3.89116626 -3.95854914 4.32003652 -10.1875 3.1875 C-7.45798749 -0.67846382 -4.44588996 -0.12236394 0 0 Z " fill="#DA1750" transform="translate(91.1875,115.8125)"/>
<path d="M0 0 C0.99 0.33 1.98 0.66 3 1 C-1.32369829 4.87641915 -8.95808443 11 -15 11 C-15 10.34 -15 9.68 -15 9 C-12.09451118 6.95830515 -10.59857954 6 -7 6 C-6.67 5.01 -6.34 4.02 -6 3 C-4.02 2.67 -2.04 2.34 0 2 C0 1.34 0 0.68 0 0 Z " fill="#3B010C" transform="translate(119,169)"/>
<path d="M0 0 C0.99 0.33 1.98 0.66 3 1 C-0.04722047 5.5098863 -2.876604 7.23009956 -8 9 C-8.99 9 -9.98 9 -11 9 C-9.54405245 7.68485396 -8.08516421 6.37296283 -6.625 5.0625 C-5.81289062 4.33160156 -5.00078125 3.60070312 -4.1640625 2.84765625 C-2 1 -2 1 0 0 Z " fill="#022729" transform="translate(77,102)"/>
<path d="M0 0 C4.02970048 3.08943703 4.70572012 6.00143416 5.5078125 10.78125 C6.02324696 13.1047958 6.85696916 14.9217621 8 17 C7.34 17.33 6.68 17.66 6 18 C2.63438409 11.9394075 0.38669459 6.96050253 0 0 Z " fill="#033435" transform="translate(55,150)"/>
<path d="M0 0 C1.63542086 3.20970449 3.14031997 6.46807572 4.625 9.75 C5.07101563 10.73484375 5.51703125 11.7196875 5.9765625 12.734375 C6.31429687 13.48203125 6.65203125 14.2296875 7 15 C5.35 15 3.7 15 2 15 C1.814375 14.071875 1.814375 14.071875 1.625 13.125 C1.12802644 10.80879168 1.12802644 10.80879168 -1 9 C-0.9765625 6.8359375 -0.9765625 6.8359375 -0.625 4.375 C-0.51414063 3.55773438 -0.40328125 2.74046875 -0.2890625 1.8984375 C-0.19367188 1.27195313 -0.09828125 0.64546875 0 0 Z " fill="#AF516E" transform="translate(145,51)"/>
<path d="M0 0 C-0.721875 0.53625 -1.44375 1.0725 -2.1875 1.625 C-5.247842 4.2092888 -7.51220011 6.87248014 -10 10 C-11 8 -11 8 -10.25 4.4375 C-9.8375 3.303125 -9.425 2.16875 -9 1 C-5.8035914 -0.06546953 -3.34252724 -0.07427838 0 0 Z " fill="#F05B8B" transform="translate(92,123)"/>
<path d="M0 0 C-0.33 0.99 -0.66 1.98 -1 3 C-5.95 3 -10.9 3 -16 3 C-16 2.34 -16 1.68 -16 1 C-14.27111445 0.83044205 -12.54187557 0.66448486 -10.8125 0.5 C-9.84957031 0.4071875 -8.88664062 0.314375 -7.89453125 0.21875 C-5.24812333 0.01875156 -2.65239135 -0.03879183 0 0 Z " fill="#F7054E" transform="translate(105,182)"/>
<path d="M0 0 C0 1.32 0 2.64 0 4 C-1.43739513 4.02712066 -2.87493863 4.04645067 -4.3125 4.0625 C-5.51326172 4.07990234 -5.51326172 4.07990234 -6.73828125 4.09765625 C-9 4 -9 4 -12 3 C-12 2.34 -12 1.68 -12 1 C-10.37512529 0.83211627 -8.75009558 0.66573213 -7.125 0.5 C-6.22007813 0.4071875 -5.31515625 0.314375 -4.3828125 0.21875 C-2 0 -2 0 0 0 Z " fill="#0CF2EE" transform="translate(104,157)"/>
<path d="M0 0 C0 0.99 0 1.98 0 3 C-4.09003859 4.14982602 -8.03177051 4.11094256 -12.25 4.0625 C-12.99507812 4.05798828 -13.74015625 4.05347656 -14.5078125 4.04882812 C-16.3385764 4.03709246 -18.16929873 4.0191585 -20 4 C-20 3.01 -20 2.02 -20 1 C-19.14728516 1.24169922 -19.14728516 1.24169922 -18.27734375 1.48828125 C-11.33843185 3.04745356 -6.40583184 0 0 0 Z " fill="#AFF6F5" transform="translate(104,152)"/>
<path d="M0 0 C0.61875 0.268125 1.2375 0.53625 1.875 0.8125 C7.45400444 2.93252169 13.20073275 4.59371117 19 6 C19 6.66 19 7.32 19 8 C6.40717489 7.01165919 6.40717489 7.01165919 2.95703125 4.53125 C1.625 2.875 1.625 2.875 0 0 Z " fill="#9AE7DE" transform="translate(152,66)"/>
<path d="M0 0 C3.33333333 3.33333333 6.66666667 6.66666667 10 10 C7.69 10 5.38 10 3 10 C3 9.34 3 8.68 3 8 C2.34 8 1.68 8 1 8 C0.67 5.36 0.34 2.72 0 0 Z " fill="#38030B" transform="translate(72,144)"/>
<path d="M0 0 C0.66 0.33 1.32 0.66 2 1 C1.505 2.134375 1.01 3.26875 0.5 4.4375 C-1.24646333 9.02094132 -1.30300849 13.15186415 -1 18 C-3.08330748 15.74308356 -3.95038977 14.31183572 -4.4375 11.25 C-3.86077202 6.96573504 -2.11807113 3.72553583 0 0 Z " fill="#43010E" transform="translate(73,124)"/>
<path d="M0 0 C0.66 0 1.32 0 2 0 C3.16306443 3.54950034 2.92365049 6.55823948 2.5625 10.25 C2.40974609 11.86648437 2.40974609 11.86648437 2.25390625 13.515625 C2.17011719 14.33546875 2.08632813 15.1553125 2 16 C1.34 16 0.68 16 0 16 C0 10.72 0 5.44 0 0 Z " fill="#04F2EF" transform="translate(50,128)"/>
<path d="M0 0 C0.99 0 1.98 0 3 0 C2.72510809 4.03174806 2.46508424 5.56894631 -0.5625 8.375 C-1.366875 8.91125 -2.17125 9.4475 -3 10 C-3.66 9.67 -4.32 9.34 -5 9 C-4.319375 8.1646875 -4.319375 8.1646875 -3.625 7.3125 C-1.96266232 4.94686561 -0.97855457 2.70984342 0 0 Z " fill="#030F12" transform="translate(65,112)"/>
<path d="M0 0 C0 3.99626903 -1.81747873 5.7262181 -4 9 C-4 9.99 -4 10.98 -4 12 C-5.32 12.33 -6.64 12.66 -8 13 C-7.67 11.02 -7.34 9.04 -7 7 C-6.34 7 -5.68 7 -5 7 C-4.731875 6.401875 -4.46375 5.80375 -4.1875 5.1875 C-3.01506533 3.02775192 -1.80630718 1.64209744 0 0 Z " fill="#2BE8DD" transform="translate(63,101)"/>
<path d="M0 0 C0.66 0.66 1.32 1.32 2 2 C-1.85421412 10.6309795 -1.85421412 10.6309795 -6 13 C-5.67 11.35 -5.34 9.7 -5 8 C-4.01 8 -3.02 8 -2 8 C-2.061875 6.576875 -2.061875 6.576875 -2.125 5.125 C-2 2 -2 2 0 0 Z " fill="#2BD8D2" transform="translate(117,146)"/>
<path d="M0 0 C0.86625 0.7115625 0.86625 0.7115625 1.75 1.4375 C3.92582084 2.9484867 5.42602448 3.54036151 8 4 C9.10228696 8.40914783 9.07654536 12.48382401 9 17 C8.67 17 8.34 17 8 17 C7.67 13.04 7.34 9.08 7 5 C5.02 5 3.04 5 1 5 C0.67 3.35 0.34 1.7 0 0 Z " fill="#F4D8E2" transform="translate(171,74)"/>
<path d="M0 0 C0.66 0 1.32 0 2 0 C2 0.66 2 1.32 2 2 C2.99 2 3.98 2 5 2 C6.38671875 3.53125 6.38671875 3.53125 7.6875 5.5 C8.12449219 6.1496875 8.56148437 6.799375 9.01171875 7.46875 C9.33785156 7.9740625 9.66398437 8.479375 10 9 C9.01 9.495 9.01 9.495 8 10 C8 9.34 8 8.68 8 8 C7.13375 7.9690625 7.13375 7.9690625 6.25 7.9375 C2.61609879 6.4233745 1.75149584 3.44043825 0 0 Z " fill="#B7E6E3" transform="translate(56,164)"/>
<path d="M0 0 C-2.297221 1.74271938 -4.59866729 3.39911152 -7 5 C-9.1875 4.625 -9.1875 4.625 -11 4 C-10.34 4 -9.68 4 -9 4 C-8.67 3.01 -8.34 2.02 -8 1 C-5.04059045 -1.0409721 -3.36242374 -1.20086562 0 0 Z " fill="#20E7E0" transform="translate(81,100)"/>
<path d="M0 0 C1.27617187 0.02320312 2.55234375 0.04640625 3.8671875 0.0703125 C5.78917969 0.09738281 5.78917969 0.09738281 7.75 0.125 C9.23113281 0.15980469 9.23113281 0.15980469 10.7421875 0.1953125 C10.7421875 0.8553125 10.7421875 1.5153125 10.7421875 2.1953125 C9.6696875 2.1746875 8.5971875 2.1540625 7.4921875 2.1328125 C3.98014835 2.04146267 3.98014835 2.04146267 1.6171875 2.7578125 C-0.88078159 3.34067195 -2.79861069 2.81011295 -5.2578125 2.1953125 C-3.2578125 0.1953125 -3.2578125 0.1953125 0 0 Z " fill="#F01354" transform="translate(164.2578125,97.8046875)"/>
<path d="M0 0 C0.99 0.33 1.98 0.66 3 1 C3 2.65 3 4.3 3 6 C0.69 6 -1.62 6 -4 6 C-3.34 4.68 -2.68 3.36 -2 2 C-1.34 2 -0.68 2 0 2 C0 1.34 0 0.68 0 0 Z " fill="#0C0908" transform="translate(109,161)"/>
<path d="M0 0 C5.75 1.75 5.75 1.75 8 4 C6.68 4 5.36 4 4 4 C4 7.3 4 10.6 4 14 C3.67 14 3.34 14 3 14 C3 10.37 3 6.74 3 3 C2.01 2.67 1.02 2.34 0 2 C0 1.34 0 0.68 0 0 Z " fill="#D6285A" transform="translate(140,89)"/>
<path d="M0 0 C0.99 0 1.98 0 3 0 C2.42365861 4.75481646 0.44931479 7.97048212 -2 12 C-3.40907283 9.18185434 -2.50872691 7.82722796 -1.5625 4.875 C-1.27503906 3.96492187 -0.98757812 3.05484375 -0.69140625 2.1171875 C-0.46324219 1.41851562 -0.23507813 0.71984375 0 0 Z " fill="#F28DAD" transform="translate(139,157)"/>
<path d="M0 0 C4.29 0 8.58 0 13 0 C13 0.33 13 0.66 13 1 C8.545 1.495 8.545 1.495 4 2 C4 2.66 4 3.32 4 4 C2.68 3.67 1.36 3.34 0 3 C0 2.01 0 1.02 0 0 Z " fill="#CE1F53" transform="translate(83,181)"/>
<path d="M0 0 C0.33 0 0.66 0 1 0 C1.2226746 1.43534841 1.42761906 2.87345525 1.625 4.3125 C1.74101562 5.11300781 1.85703125 5.91351563 1.9765625 6.73828125 C2 9 2 9 0 12 C-0.66 12 -1.32 12 -2 12 C-1.34 8.04 -0.68 4.08 0 0 Z " fill="#EF044A" transform="translate(137,152)"/>
<path d="M0 0 C0.66 0.33 1.32 0.66 2 1 C0.68 3.31 -0.64 5.62 -2 8 C-3.32 7.67 -4.64 7.34 -6 7 C-4.02 4.69 -2.04 2.38 0 0 Z " fill="#6DEFEB" transform="translate(110,144)"/>
<path d="M0 0 C-0.66 0 -1.32 0 -2 0 C-1.67 0.99 -1.34 1.98 -1 3 C-2.32 3.99 -3.64 4.98 -5 6 C-5.66 4.35 -6.32 2.7 -7 1 C-3.375 -1.125 -3.375 -1.125 0 0 Z " fill="#0EF7F7" transform="translate(71,102)"/>
<path d="M0 0 C3.63 1.32 7.26 2.64 11 4 C10.67 4.99 10.34 5.98 10 7 C8.68 6.67 7.36 6.34 6 6 C6 5.34 6 4.68 6 4 C4.35 3.67 2.7 3.34 1 3 C0.67 2.01 0.34 1.02 0 0 Z " fill="#032833" transform="translate(159,73)"/>
<path d="M0 0 C1 3 1 3 -0.4375 6.1875 C-1.2109375 7.5796875 -1.2109375 7.5796875 -2 9 C-2.66 9 -3.32 9 -4 9 C-4.33 8.01 -4.66 7.02 -5 6 C-4.34 6 -3.68 6 -3 6 C-3 4.68 -3 3.36 -3 2 C-2.01 2 -1.02 2 0 2 C0 1.34 0 0.68 0 0 Z " fill="#E7356B" transform="translate(137,162)"/>
<path d="M0 0 C0.99 1.32 1.98 2.64 3 4 C2.34 4.66 1.68 5.32 1 6 C0.34 5.67 -0.32 5.34 -1 5 C-1.66 6.32 -2.32 7.64 -3 9 C-3.33 8.01 -3.66 7.02 -4 6 C-2.0625 2.8125 -2.0625 2.8125 0 0 Z " fill="#05191F" transform="translate(117,151)"/>
<path d="M0 0 C2.64 0.66 5.28 1.32 8 2 C7.67 2.99 7.34 3.98 7 5 C4.03 4.505 4.03 4.505 1 4 C0.67 2.68 0.34 1.36 0 0 Z " fill="#D53A68" transform="translate(148,93)"/>
<path d="M0 0 C1.43861294 0.08746284 2.87597508 0.19565348 4.3125 0.3125 C5.11300781 0.37050781 5.91351563 0.42851563 6.73828125 0.48828125 C9.36272334 1.08206694 10.30820672 1.95780294 12 4 C3.42857143 3.28571429 3.42857143 3.28571429 0 0 Z " fill="#550315" transform="translate(148,92)"/>
<path d="M0 0 C2 1.75 2 1.75 4 4 C4 5.32 4 6.64 4 8 C3.01 8 2.02 8 1 8 C0.67 5.36 0.34 2.72 0 0 Z " fill="#042125" transform="translate(55,150)"/>
<path d="M0 0 C0.66 0 1.32 0 2 0 C2 0.99 2 1.98 2 3 C2.66 3 3.32 3 4 3 C4.66 5.31 5.32 7.62 6 10 C2.46413986 6.82679218 0.41421969 4.83256305 0 0 Z " fill="#9DF8F7" transform="translate(50,154)"/>
<path d="M0 0 C1.37432457 3.81756824 0.67975039 7.07255329 0 11 C-0.99 11 -1.98 11 -3 11 C-2.69217504 9.35328588 -2.37860766 7.70764424 -2.0625 6.0625 C-1.88847656 5.14597656 -1.71445313 4.22945312 -1.53515625 3.28515625 C-1 1 -1 1 0 0 Z " fill="#E11854" transform="translate(142,146)"/>
<path d="M0 0 C0.66 0.33 1.32 0.66 2 1 C-0.75 5.875 -0.75 5.875 -3 7 C-3.1875 4.625 -3.1875 4.625 -3 2 C-2.01 1.34 -1.02 0.68 0 0 Z " fill="#260108" transform="translate(127,160)"/>
<path d="M0 0 C1.45606519 4.52092968 0.27032841 7.51648796 -1 12 C-2.1875 10.5 -2.1875 10.5 -3 8 C-2.27101296 5.21175762 -1.1843275 2.62334908 0 0 Z " fill="#BB1145" transform="translate(135,147)"/>
<path d="M0 0 C1.76462683 3.08809695 2 4.23312136 2 8 C1.01 8 0.02 8 -1 8 C-1.125 2.25 -1.125 2.25 0 0 Z " fill="#0E0409" transform="translate(60,152)"/>
<path d="M0 0 C-0.33 1.32 -0.66 2.64 -1 4 C-2.98 4 -4.96 4 -7 4 C-7 3.01 -7 2.02 -7 1 C-2.25 0 -2.25 0 0 0 Z " fill="#13F4F1" transform="translate(88,94)"/>
<path d="M0 0 C0.99 0.33 1.98 0.66 3 1 C3.33 4.3 3.66 7.6 4 11 C3.67 11 3.34 11 3 11 C2.67 8.36 2.34 5.72 2 3 C1.34 3 0.68 3 0 3 C0 2.01 0 1.02 0 0 Z " fill="#22F1F3" transform="translate(50,125)"/>
<path d="M0 0 C0.33 0.66 0.66 1.32 1 2 C1.99 2.33 2.98 2.66 4 3 C3.01 4.485 3.01 4.485 2 6 C1.01 6 0.02 6 -1 6 C-1.042721 4.33388095 -1.04063832 2.66617115 -1 1 C-0.67 0.67 -0.34 0.34 0 0 Z " fill="#06F3F5" transform="translate(53,118)"/>
<path d="M0 0 C0 0.66 0 1.32 0 2 C-2.95664519 3.4783226 -5.74229737 3.06032783 -9 3 C-4.5 0 -4.5 0 0 0 Z " fill="#02282D" transform="translate(88,99)"/>
<path d="M0 0 C-0.99 1.485 -0.99 1.485 -2 3 C-4.64 2.67 -7.28 2.34 -10 2 C-6.5980513 -0.09350689 -3.94727588 -0.17942163 0 0 Z " fill="#012F2D" transform="translate(98,97)"/>
<path d="M0 0 C1.64350079 3.28700157 2.41321669 5.47930015 3 9 C2.67 8.34 2.34 7.68 2 7 C1.34 7 0.68 7 0 7 C-0.33 7.66 -0.66 8.32 -1 9 C-0.67 6.03 -0.34 3.06 0 0 Z " fill="#EA7E9D" transform="translate(145,51)"/>
<path d="" fill="#FFFFFF" transform="translate(0,0)"/>
<path d="" fill="#FFFFFF" transform="translate(0,0)"/>
<path d="" fill="#FFFFFF" transform="translate(0,0)"/>
<path d="" fill="#FFFFFF" transform="translate(0,0)"/>
<path d="" fill="#FFFFFF" transform="translate(0,0)"/>
<path d="" fill="#FFFFFF" transform="translate(0,0)"/>
<path d="" fill="#FFFFFF" transform="translate(0,0)"/>
<path d="" fill="#FFFFFF" transform="translate(0,0)"/>
<path d="" fill="#FFFFFF" transform="translate(0,0)"/>
<path d="" fill="#FFFFFF" transform="translate(0,0)"/>
<path d="" fill="#FFFFFF" transform="translate(0,0)"/>
<path d="" fill="#FFFFFF" transform="translate(0,0)"/>
<path d="" fill="#FFFFFF" transform="translate(0,0)"/>
<path d="" fill="#FFFFFF" transform="translate(0,0)"/>
<path d="" fill="#FFFFFF" transform="translate(0,0)"/>
<path d="" fill="#FFFFFF" transform="translate(0,0)"/>
<path d="" fill="#FFFFFF" transform="translate(0,0)"/>
<path d="" fill="#FFFFFF" transform="translate(0,0)"/>
<path d="" fill="#FFFFFF" transform="translate(0,0)"/>
<path d="" fill="#DDDDDD" transform="translate(0,0)"/>
<path d="" fill="#FFFFFF" transform="translate(0,0)"/>
<path d="" fill="#FFFFFF" transform="translate(0,0)"/>
<path d="" fill="#FFFFFF" transform="translate(0,0)"/>
<path d="" fill="#FFFFFF" transform="translate(0,0)"/>
<path d="" fill="#FFFFFF" transform="translate(0,0)"/>
<path d="" fill="#FFFFFF" transform="translate(0,0)"/>
<path d="" fill="#FFFFFF" transform="translate(0,0)"/>
<path d="" fill="#FFFFFF" transform="translate(0,0)"/>
<path d="" fill="#FFFFFF" transform="translate(0,0)"/>
<path d="" fill="#FFFFFF" transform="translate(0,0)"/>
<path d="" fill="#FFFFFF" transform="translate(0,0)"/>
<path d="" fill="#FFFFFF" transform="translate(0,0)"/>
<path d="" fill="#FFFFFF" transform="translate(0,0)"/>
<path d="" fill="#FFFFFF" transform="translate(0,0)"/>
<path d="" fill="#FFFFFF" transform="translate(0,0)"/>
<path d="" fill="#FFFFFF" transform="translate(0,0)"/>
<path d="" fill="#FFFFFF" transform="translate(0,0)"/>
<path d="" fill="#FFFFFF" transform="translate(0,0)"/>
<path d="" fill="#FFFFFF" transform="translate(0,0)"/>
<path d="" fill="#FFFFFF" transform="translate(0,0)"/>
<path d="" fill="#FFFFFF" transform="translate(0,0)"/>
<path d="" fill="#FFFFFF" transform="translate(0,0)"/>
<path d="" fill="#FFFFFF" transform="translate(0,0)"/>
<path d="" fill="#FFFFFF" transform="translate(0,0)"/>
<path d="" fill="#FFFFFF" transform="translate(0,0)"/>
<path d="" fill="#FFFFFF" transform="translate(0,0)"/>
<path d="" fill="#FFFFFF" transform="translate(0,0)"/>
<path d="" fill="#FFFFFF" transform="translate(0,0)"/>
<path d="" fill="#FFFFFF" transform="translate(0,0)"/>
<path d="" fill="#FFFFFF" transform="translate(0,0)"/>
<path d="" fill="#FFFFFF" transform="translate(0,0)"/>
<path d="" fill="#FFFFFF" transform="translate(0,0)"/>
<path d="" fill="#FFFFFF" transform="translate(0,0)"/>
<path d="" fill="#FFFFFF" transform="translate(0,0)"/>
<path d="" fill="#FFFFFF" transform="translate(0,0)"/>
<path d="" fill="#FFFFFF" transform="translate(0,0)"/>
<path d="" fill="#FFFFFF" transform="translate(0,0)"/>
<path d="" fill="#FEFFFF" transform="translate(0,0)"/>
<path d="" fill="#FFFFFF" transform="translate(0,0)"/>
<path d="" fill="#FFFFFF" transform="translate(0,0)"/>
<path d="" fill="#FFFFFF" transform="translate(0,0)"/>
<path d="" fill="#FFFFFF" transform="translate(0,0)"/>
<path d="" fill="#FFFFFF" transform="translate(0,0)"/>
<path d="" fill="#FFFFFF" transform="translate(0,0)"/>
<path d="" fill="#FFFFFF" transform="translate(0,0)"/>
<path d="" fill="#FFFFFF" transform="translate(0,0)"/>
<path d="" fill="#FFFFFF" transform="translate(0,0)"/>
</svg>
