<?xml version="1.0" encoding="UTF-8"?>
<svg version="1.1" xmlns="http://www.w3.org/2000/svg" width="300" height="300">
<path d="M0 0 C12.10829134 -0.48902281 24.21419663 -0.86087541 36.33039093 -1.08805561 C41.9586978 -1.19716924 47.58020107 -1.34476386 53.20458984 -1.58422852 C92.64349913 -3.2207407 92.64349913 -3.2207407 101.4609375 4.55712891 C105.14860432 8.8375648 107.75795279 13.37346409 109.95741272 18.5634613 C111.86854213 23.02979313 114.51548668 26.6269911 118 30 C119.17112826 31.54363171 120.31357348 33.10916878 121.4375 34.6875 C130.76160291 47.62915103 140.45778041 60.2852584 150.31103516 72.82763672 C151.52271947 74.38611706 152.71852659 75.95699118 153.90380859 77.53564453 C154.52723145 78.3604834 155.1506543 79.18532227 155.79296875 80.03515625 C156.35910889 80.79320557 156.92524902 81.55125488 157.50854492 82.33227539 C158.24681519 83.15779907 158.24681519 83.15779907 159 84 C159.66 84 160.32 84 161 84 C162.32981093 82.50890766 163.5869873 80.95293286 164.8125 79.375 C168.52785459 74.72033676 172.41170893 70.32916362 176.5 66 C181.15834576 61.05361297 185.5499855 55.98439312 189.796875 50.67578125 C193.02911592 46.75009857 196.47378311 43.03761693 199.93359375 39.3125 C202.11369637 36.98197309 202.11369637 36.98197309 204 34 C204.66 34 205.32 34 206 34 C206.23332031 33.44828125 206.46664062 32.8965625 206.70703125 32.328125 C208.34019284 29.38744733 210.39339207 27.20922749 212.6875 24.75 C213.59424461 23.76868596 214.50049235 22.78691259 215.40625 21.8046875 C216.2621875 20.87914063 217.118125 19.95359375 218 19 C222.44548907 14.07820852 226.57944726 9.02509661 230.51953125 3.6875 C231.00808594 3.130625 231.49664062 2.57375 232 2 C232.66 2 233.32 2 234 2 C234 1.34 234 0.68 234 0 C249.51 0 265.02 0 281 0 C278.77227723 5.56930693 278.77227723 5.56930693 275.75 8.3125 C272.45197681 11.43839254 269.84523091 14.76592687 267.26171875 18.49609375 C266.84535156 18.99238281 266.42898438 19.48867188 266 20 C265.34 20 264.68 20 264 20 C263.76667969 20.55171875 263.53335937 21.1034375 263.29296875 21.671875 C261.65980716 24.61255267 259.60660793 26.79077251 257.3125 29.25 C256.39790249 30.23908888 255.4838413 31.22867396 254.5703125 32.21875 C253.72210938 33.1365625 252.87390625 34.054375 252 35 C248.61990703 38.78570412 245.31405002 42.63643941 241.99609375 46.4765625 C240.87248676 47.77612029 239.74878618 49.07559717 238.625 50.375 C238.05982666 51.02903809 237.49465332 51.68307617 236.91235352 52.35693359 C233.69470433 56.07228172 230.43819084 59.74410593 227.125 63.375 C223.63417432 67.20655084 220.47068303 71.2008161 217.41015625 75.3828125 C216.94480469 75.91648437 216.47945312 76.45015625 216 77 C215.34 77 214.68 77 214 77 C213.76410156 77.55558594 213.52820313 78.11117187 213.28515625 78.68359375 C211.6872248 81.56375591 209.694995 83.66369076 207.4375 86.0625 C203.19094322 90.62908714 199.21908113 95.35268898 195.3203125 100.22265625 C193.6486666 102.22356573 191.97588652 104.11526027 190.1796875 105.99609375 C189.71240234 106.48851563 189.24511719 106.9809375 188.76367188 107.48828125 C187.44398778 108.86550431 186.10909921 110.22811056 184.7734375 111.58984375 C182.75156275 113.76430506 182.75156275 113.76430506 183.22241211 115.921875 C184.08408923 118.22473078 185.12870866 119.74546686 186.66796875 121.66015625 C187.22419922 122.36140625 187.78042969 123.06265625 188.35351562 123.78515625 C188.95873047 124.53667969 189.56394531 125.28820312 190.1875 126.0625 C195.25225902 132.45461108 200.19602635 138.9096104 205 145.5 C209.56596659 151.74940752 214.22248556 157.91080191 219 164 C223.77753949 170.08923002 228.43312672 176.25123202 233 182.5 C238.2406038 189.6696875 243.61741345 196.71602871 249.09057617 203.70947266 C253.8128578 209.74472667 258.42694815 215.85063103 263 222 C264.43665477 223.9173003 265.87417823 225.83394993 267.3125 227.75 C268.05757813 228.74386719 268.80265625 229.73773438 269.5703125 230.76171875 C271.29207894 233.05764391 273.01656324 235.35150443 274.7421875 237.64453125 C277.26928573 241.00367625 279.78799346 244.36901866 282.30419922 247.73632812 C283.50077898 249.33360534 284.7006369 250.9284293 285.90283203 252.52148438 C287.85850808 255.11358872 289.80487025 257.71247608 291.75 260.3125 C292.37092529 261.13113525 292.99185059 261.94977051 293.6315918 262.79321289 C294.20176025 263.55883545 294.77192871 264.32445801 295.359375 265.11328125 C295.86952148 265.79173096 296.37966797 266.47018066 296.90527344 267.16918945 C298 269 298 269 298 272 C286.12585438 272.18551956 274.25205457 272.32758788 262.37675381 272.41449738 C256.86222004 272.45621445 251.34867913 272.51277941 245.8347168 272.60351562 C240.51134072 272.69056544 235.18891831 272.73830032 229.86488533 272.75901794 C227.83581594 272.77377779 225.80679764 272.80260204 223.7781353 272.84584045 C207.86784059 273.17140142 207.86784059 273.17140142 203.24058533 270.26945496 C201.44272011 268.24736084 200.22320439 266.40076682 199 264 C198.24074219 263.02675781 197.48148438 262.05351562 196.69921875 261.05078125 C196.03535156 260.14714844 195.37148437 259.24351562 194.6875 258.3125 C191.56072611 254.09241159 188.40030446 249.90502115 185.1875 245.75 C181.49511918 240.97154026 177.86109674 236.15261586 174.25 231.3125 C169.32619374 224.71764658 164.29407459 218.21342498 159.22509766 211.72973633 C154.78954463 206.04503434 150.45146698 200.29346524 146.14355469 194.51171875 C142.21013579 189.24571009 138.15995271 184.08982449 134 179 C125.59207231 187.31587009 117.68471704 196.02014409 110.28515625 205.24609375 C107.30801924 208.83392553 104.14705932 212.22868791 100.96484375 215.6340332 C97.48282523 219.38993919 94.34480381 223.3093659 91.33984375 227.453125 C90.89769531 227.96359375 90.45554687 228.4740625 90 229 C89.34 229 88.68 229 88 229 C87.76410156 229.55558594 87.52820313 230.11117187 87.28515625 230.68359375 C85.6872248 233.56375591 83.694995 235.66369076 81.4375 238.0625 C78.02391359 241.73250604 74.76044817 245.45998885 71.625 249.375 C67.64475163 254.31477253 63.41988389 258.97029864 59.07275391 263.58544922 C57.03609768 265.75459288 55.11068889 267.83340479 53.4609375 270.31640625 C51.40580672 272.68475215 50.13000501 272.5978135 47 273 C43.77112882 273.0685663 40.55183264 272.9766322 37.32421875 272.87890625 C36.3990596 272.85529526 35.47390045 272.83168427 34.52070618 272.80735779 C31.576137 272.73100288 28.6318497 272.64685775 25.6875 272.5625 C23.68686259 272.5092511 21.68621156 272.4565109 19.68554688 272.40429688 C14.79018729 272.27542597 9.89506576 272.13956966 5 272 C6.89922783 267.93892018 9.5692881 264.79243599 12.5 261.4375 C13.03391357 260.81979736 13.56782715 260.20209473 14.11791992 259.56567383 C18.24067372 254.81590385 22.47665683 250.18002544 26.73828125 245.5546875 C29.56097786 242.36635662 32.11856523 239.02235398 34.625 235.58203125 C35.07875 235.05996094 35.5325 234.53789062 36 234 C36.66 234 37.32 234 38 234 C38.23589844 233.44441406 38.47179688 232.88882813 38.71484375 232.31640625 C40.3127752 229.43624409 42.305005 227.33630924 44.5625 224.9375 C47.9953483 221.24636541 51.27938092 217.49589741 54.4375 213.5625 C58.09571015 209.02683557 61.94742965 204.7429883 65.91381836 200.48071289 C68.90427 197.24806025 71.73779007 193.93303234 74.5 190.5 C78.61069884 185.39477725 82.98016895 180.58795467 87.4296875 175.78125 C92.79834146 169.97200741 97.82005774 164.05383482 102.51953125 157.6875 C103.00808594 157.130625 103.49664062 156.57375 104 156 C104.66 156 105.32 156 106 156 C106.68620031 154.67661368 107.34786461 153.34050052 108 152 C108.47953125 151.29875 108.9590625 150.5975 109.453125 149.875 C110.29042275 147.09353366 110.29042275 147.09353366 109.04150391 145.16674805 C107.40147444 142.92752883 105.66701004 140.80714016 103.875 138.6875 C102.55852158 137.06752207 101.2434409 135.44640737 99.9296875 133.82421875 C99.26420898 133.01259277 98.59873047 132.2009668 97.91308594 131.36474609 C95.1762105 127.98172216 92.58447287 124.4999357 90 121 C85.16519074 114.50418675 80.21144922 108.10768815 75.22412109 101.72851562 C70.82623025 96.09200529 66.51032923 90.39931637 62.2578125 84.65234375 C59.62020568 81.10230899 56.91203082 77.62267087 54.140625 74.17578125 C50.04443618 69.08047476 46.07329108 63.89783067 42.125 58.6875 C40.7163969 56.83314259 39.30754349 54.97897529 37.8984375 53.125 C37.22651367 52.24070313 36.55458984 51.35640625 35.86230469 50.4453125 C33.50441881 47.34927357 31.12911185 44.26725644 28.75 41.1875 C24.66380768 35.88501632 20.63008981 30.54503889 16.62695312 25.1796875 C13.9647428 21.61170574 11.28438196 18.06000057 8.5703125 14.53125 C8.01456543 13.80397705 7.45881836 13.0767041 6.88623047 12.32739258 C5.81545028 10.92700637 4.73915182 9.53081821 3.65673828 8.1394043 C0 3.33724833 0 3.33724833 0 0 Z M55 27 C56.18531297 30.23937108 57.39247245 32.79034355 59.6171875 35.42578125 C60.13563232 36.04928467 60.65407715 36.67278809 61.18823242 37.31518555 C62.02318237 38.3038562 62.02318237 38.3038562 62.875 39.3125 C67.45561787 44.8382335 71.90754249 50.42539999 76.1875 56.1875 C76.6837085 56.85507324 77.17991699 57.52264648 77.69116211 58.21044922 C78.66600483 59.52234803 79.64069948 60.83435688 80.61523438 62.14648438 C83.90312309 66.54733965 87.2793139 70.88086339 90.63574219 75.22949219 C97.69424791 84.38988651 104.70449854 93.58546686 111.62890625 102.84765625 C119.9933976 113.96815793 128.50987561 124.9753034 137 136 C139.08617229 138.71128275 141.17170585 141.42305677 143.25732422 144.13476562 C145.30233987 146.79352478 147.34794817 149.45182177 149.39453125 152.109375 C158.53179669 163.97748714 167.66040183 175.85125309 176.62890625 187.84765625 C184.20318302 197.91757611 191.90632045 207.89132525 199.59375 217.875 C201.26146846 220.04086813 202.92828088 222.20740437 204.59375 224.375 C205.02792236 224.93993164 205.46209473 225.50486328 205.90942383 226.08691406 C207.09987981 227.63598496 208.29018046 229.18517524 209.48046875 230.734375 C209.88048096 231.23461182 210.28049316 231.73484863 210.69262695 232.25024414 C212 234 212 234 213.43823242 236.37280273 C216.60657557 241.28274661 216.60657557 241.28274661 221.71508789 243.71826172 C224.83593637 243.88539107 227.82092804 243.78884321 230.9375 243.5625 C232.00291016 243.52189453 233.06832031 243.48128906 234.16601562 243.43945312 C236.78210872 243.33387089 239.38863412 243.18645783 242 243 C240.41417733 238.80106903 238.48384784 235.78319236 235.6875 232.25 C234.78598923 231.1006282 233.88497311 229.95086831 232.984375 228.80078125 C232.50291016 228.18928223 232.02144531 227.5777832 231.52539062 226.94775391 C228.79961084 223.46723676 226.12043426 219.95108106 223.4375 216.4375 C222.88312256 215.71248291 222.32874512 214.98746582 221.75756836 214.24047852 C216.42534862 207.26139321 211.16031233 200.23340346 205.90625 193.1953125 C201.53573955 187.35213006 197.12614234 181.54152068 192.6875 175.75 C186.39979991 167.54333835 180.19050075 159.28009767 174 151 C163.90890318 137.50631755 153.78746811 124.03758507 143.4609375 110.72265625 C138.63027311 104.48370371 133.91199084 98.17808294 129.25 91.8125 C123.91951454 84.53683191 118.45588858 77.38052167 112.89941406 70.27636719 C106.97265829 62.69827619 101.20672843 55.00993678 95.515625 47.25390625 C94.89494141 46.40884521 94.27425781 45.56378418 93.63476562 44.69311523 C92.40751591 43.02090802 91.18215646 41.34731134 89.95898438 39.67211914 C88.82953115 38.13191204 87.68694624 36.60122902 86.5300293 35.08154297 C85 33 85 33 83.91723633 31.10986328 C82.79217381 29.13032725 82.79217381 29.13032725 80 27 C75.70456791 26.27705212 71.52705528 26.43537237 67.1875 26.625 C66.01767578 26.65207031 64.84785156 26.67914063 63.64257812 26.70703125 C60.75983865 26.77762895 57.88086429 26.87619426 55 27 Z " fill="#0A0A0A" transform="translate(1,14)"/>
<path d="M0 0 C0.66 0.33 1.32 0.66 2 1 C2 4 2 4 0.3203125 5.68359375 C-0.40414062 6.26238281 -1.12859375 6.84117188 -1.875 7.4375 C-4.83713578 9.81039372 -6.36822433 11.60726641 -8 15 C-9.88215868 16.85290233 -11.91358806 18.36715588 -14 20 C-14.66 19.67 -15.32 19.34 -16 19 C-15.43152344 18.38253906 -14.86304688 17.76507813 -14.27734375 17.12890625 C-9.2433136 11.60744079 -4.48772121 5.9740083 0 0 Z " fill="#5A5A5A" transform="translate(205,48)"/>
<path d="M0 0 C0.66 0.99 1.32 1.98 2 3 C1.56429687 3.35191406 1.12859375 3.70382813 0.6796875 4.06640625 C-3.70232497 7.69911356 -7.42563217 11.57459221 -11 16 C-11.66 15.67 -12.32 15.34 -13 15 C-12.56429687 14.50371094 -12.12859375 14.00742188 -11.6796875 13.49609375 C-7.75726021 9.02180981 -3.86455714 4.52435958 0 0 Z " fill="#555555" transform="translate(104,172)"/>
<path d="M0 0 C0.33 0.99 0.66 1.98 1 3 C-2.3 6.63 -5.6 10.26 -9 14 C-9.66 13.67 -10.32 13.34 -11 13 C-10.06027344 11.96939453 -10.06027344 11.96939453 -9.1015625 10.91796875 C-8.28429687 10.01691406 -7.46703125 9.11585938 -6.625 8.1875 C-5.81289062 7.29417969 -5.00078125 6.40085938 -4.1640625 5.48046875 C-1.90927093 3.00367326 -1.90927093 3.00367326 0 0 Z " fill="#5F5F5F" transform="translate(73,207)"/>
<path d="M0 0 C0.33 1.32 0.66 2.64 1 4 C-0.26257233 5.17560179 -1.53537084 6.34022865 -2.8125 7.5 C-3.52019531 8.1496875 -4.22789062 8.799375 -4.95703125 9.46875 C-7 11 -7 11 -10 11 C-6.7 7.37 -3.4 3.74 0 0 Z " fill="#616161" transform="translate(218,34)"/>
<path d="" fill="#FFFFFF" transform="translate(0,0)"/>
<path d="" fill="#FFFFFF" transform="translate(0,0)"/>
<path d="" fill="#FFFFFF" transform="translate(0,0)"/>
<path d="" fill="#FFFFFF" transform="translate(0,0)"/>
<path d="" fill="#FFFFFF" transform="translate(0,0)"/>
<path d="" fill="#FFFFFF" transform="translate(0,0)"/>
<path d="" fill="#FFFFFF" transform="translate(0,0)"/>
<path d="" fill="#FFFFFF" transform="translate(0,0)"/>
<path d="" fill="#FFFFFF" transform="translate(0,0)"/>
<path d="" fill="#FFFFFF" transform="translate(0,0)"/>
<path d="" fill="#FFFFFF" transform="translate(0,0)"/>
<path d="" fill="#FFFFFF" transform="translate(0,0)"/>
<path d="" fill="#FFFFFF" transform="translate(0,0)"/>
<path d="" fill="#FFFFFF" transform="translate(0,0)"/>
<path d="" fill="#FFFFFF" transform="translate(0,0)"/>
<path d="" fill="#FFFFFF" transform="translate(0,0)"/>
<path d="" fill="#FFFFFF" transform="translate(0,0)"/>
<path d="" fill="#FFFFFF" transform="translate(0,0)"/>
<path d="" fill="#FFFFFF" transform="translate(0,0)"/>
<path d="" fill="#FFFFFF" transform="translate(0,0)"/>
<path d="" fill="#FFFFFF" transform="translate(0,0)"/>
<path d="" fill="#FFFFFF" transform="translate(0,0)"/>
<path d="" fill="#FFFFFF" transform="translate(0,0)"/>
<path d="" fill="#FFFFFF" transform="translate(0,0)"/>
<path d="" fill="#FFFFFF" transform="translate(0,0)"/>
<path d="" fill="#FFFFFF" transform="translate(0,0)"/>
<path d="" fill="#FFFFFF" transform="translate(0,0)"/>
<path d="" fill="#FFFFFF" transform="translate(0,0)"/>
<path d="" fill="#FFFFFF" transform="translate(0,0)"/>
<path d="" fill="#FFFFFF" transform="translate(0,0)"/>
<path d="" fill="#FFFFFF" transform="translate(0,0)"/>
<path d="" fill="#FFFFFF" transform="translate(0,0)"/>
<path d="" fill="#FFFFFF" transform="translate(0,0)"/>
<path d="" fill="#FFFFFF" transform="translate(0,0)"/>
<path d="" fill="#FFFFFF" transform="translate(0,0)"/>
<path d="" fill="#FFFFFF" transform="translate(0,0)"/>
<path d="" fill="#FFFFFF" transform="translate(0,0)"/>
<path d="" fill="#FFFFFF" transform="translate(0,0)"/>
<path d="" fill="#FFFFFF" transform="translate(0,0)"/>
<path d="" fill="#FFFFFF" transform="translate(0,0)"/>
<path d="" fill="#FFFFFF" transform="translate(0,0)"/>
<path d="" fill="#FFFFFF" transform="translate(0,0)"/>
<path d="" fill="#FFFFFF" transform="translate(0,0)"/>
<path d="" fill="#FFFFFF" transform="translate(0,0)"/>
<path d="" fill="#FFFFFF" transform="translate(0,0)"/>
<path d="" fill="#FFFFFF" transform="translate(0,0)"/>
<path d="" fill="#FFFFFF" transform="translate(0,0)"/>
<path d="" fill="#FFFFFF" transform="translate(0,0)"/>
<path d="" fill="#FFFFFF" transform="translate(0,0)"/>
<path d="" fill="#FFFFFF" transform="translate(0,0)"/>
<path d="" fill="#FFFFFF" transform="translate(0,0)"/>
<path d="" fill="#FFFFFF" transform="translate(0,0)"/>
</svg>
